solid OpenSCAD_Model
  facet normal -0.998027 0.0627905 0
    outer loop
      vertex -38.5 0 -1.1
      vertex -38.4054 1.504 1.1
      vertex -38.4054 1.504 -1.1
    endloop
  endfacet
  facet normal -0.998027 0.0627905 0
    outer loop
      vertex -38.4054 1.504 1.1
      vertex -38.5 0 -1.1
      vertex -38.5 0 1.1
    endloop
  endfacet
  facet normal -0.844328 0.535827 0
    outer loop
      vertex -37.0157 5.78104 -1.1
      vertex -36.2082 7.05342 1.1
      vertex -36.2082 7.05342 -1.1
    endloop
  endfacet
  facet normal -0.844328 0.535827 0
    outer loop
      vertex -36.2082 7.05342 1.1
      vertex -37.0157 5.78104 -1.1
      vertex -37.0157 5.78104 1.1
    endloop
  endfacet
  facet normal -0.770513 0.637424 0
    outer loop
      vertex -36.2082 7.05342 -1.1
      vertex -35.3424 8.1 1.1
      vertex -35.3424 8.1 -1.1
    endloop
  endfacet
  facet normal -0.770513 0.637424 0
    outer loop
      vertex -35.3424 8.1 1.1
      vertex -36.2082 7.05342 -1.1
      vertex -36.2082 7.05342 1.1
    endloop
  endfacet
  facet normal -0.951057 0.309016 0
    outer loop
      vertex -38.123 2.98428 -1.1
      vertex -37.6573 4.41749 1.1
      vertex -37.6573 4.41749 -1.1
    endloop
  endfacet
  facet normal -0.951057 0.309016 0
    outer loop
      vertex -37.6573 4.41749 1.1
      vertex -38.123 2.98428 -1.1
      vertex -38.123 2.98428 1.1
    endloop
  endfacet
  facet normal -0.904827 0.42578 0
    outer loop
      vertex -37.6573 4.41749 -1.1
      vertex -37.0157 5.78104 1.1
      vertex -37.0157 5.78104 -1.1
    endloop
  endfacet
  facet normal -0.904827 0.42578 0
    outer loop
      vertex -37.0157 5.78104 1.1
      vertex -37.6573 4.41749 -1.1
      vertex -37.6573 4.41749 1.1
    endloop
  endfacet
  facet normal -0.951057 -0.309016 0
    outer loop
      vertex -37.6573 -4.41749 -1.1
      vertex -38.123 -2.98428 1.1
      vertex -38.123 -2.98428 -1.1
    endloop
  endfacet
  facet normal -0.951057 -0.309016 0
    outer loop
      vertex -38.123 -2.98428 1.1
      vertex -37.6573 -4.41749 -1.1
      vertex -37.6573 -4.41749 1.1
    endloop
  endfacet
  facet normal -0.982287 0.187382 0
    outer loop
      vertex -38.4054 1.504 -1.1
      vertex -38.123 2.98428 1.1
      vertex -38.123 2.98428 -1.1
    endloop
  endfacet
  facet normal -0.982287 0.187382 0
    outer loop
      vertex -38.123 2.98428 1.1
      vertex -38.4054 1.504 -1.1
      vertex -38.4054 1.504 1.1
    endloop
  endfacet
  facet normal -0.770513 -0.637424 0
    outer loop
      vertex -35.3424 -8.1 -1.1
      vertex -36.2082 -7.05342 1.1
      vertex -36.2082 -7.05342 -1.1
    endloop
  endfacet
  facet normal -0.770513 -0.637424 0
    outer loop
      vertex -36.2082 -7.05342 1.1
      vertex -35.3424 -8.1 -1.1
      vertex -35.3424 -8.1 1.1
    endloop
  endfacet
  facet normal -0.904827 -0.42578 0
    outer loop
      vertex -37.0157 -5.78104 -1.1
      vertex -37.6573 -4.41749 1.1
      vertex -37.6573 -4.41749 -1.1
    endloop
  endfacet
  facet normal -0.904827 -0.42578 0
    outer loop
      vertex -37.6573 -4.41749 1.1
      vertex -37.0157 -5.78104 -1.1
      vertex -37.0157 -5.78104 1.1
    endloop
  endfacet
  facet normal -0.998027 -0.0627905 0
    outer loop
      vertex -38.4054 -1.504 -1.1
      vertex -38.5 0 1.1
      vertex -38.5 0 -1.1
    endloop
  endfacet
  facet normal -0.998027 -0.0627905 0
    outer loop
      vertex -38.5 0 1.1
      vertex -38.4054 -1.504 -1.1
      vertex -38.4054 -1.504 1.1
    endloop
  endfacet
  facet normal -0.844328 -0.535827 0
    outer loop
      vertex -36.2082 -7.05342 -1.1
      vertex -37.0157 -5.78104 1.1
      vertex -37.0157 -5.78104 -1.1
    endloop
  endfacet
  facet normal -0.844328 -0.535827 0
    outer loop
      vertex -37.0157 -5.78104 1.1
      vertex -36.2082 -7.05342 -1.1
      vertex -36.2082 -7.05342 1.1
    endloop
  endfacet
  facet normal -0.982287 -0.187382 0
    outer loop
      vertex -38.123 -2.98428 -1.1
      vertex -38.4054 -1.504 1.1
      vertex -38.4054 -1.504 -1.1
    endloop
  endfacet
  facet normal -0.982287 -0.187382 0
    outer loop
      vertex -38.4054 -1.504 1.1
      vertex -38.123 -2.98428 -1.1
      vertex -38.123 -2.98428 1.1
    endloop
  endfacet
  facet normal 0.998027 0.0627905 0
    outer loop
      vertex 38.5 0 1.1
      vertex 38.4054 1.504 -1.1
      vertex 38.4054 1.504 1.1
    endloop
  endfacet
  facet normal 0.998027 0.0627905 0
    outer loop
      vertex 38.4054 1.504 -1.1
      vertex 38.5 0 1.1
      vertex 38.5 0 -1.1
    endloop
  endfacet
  facet normal 0.844328 -0.535827 0
    outer loop
      vertex 36.2082 -7.05342 1.1
      vertex 37.0157 -5.78104 -1.1
      vertex 37.0157 -5.78104 1.1
    endloop
  endfacet
  facet normal 0.844328 -0.535827 0
    outer loop
      vertex 37.0157 -5.78104 -1.1
      vertex 36.2082 -7.05342 1.1
      vertex 36.2082 -7.05342 -1.1
    endloop
  endfacet
  facet normal 0.904827 0.42578 0
    outer loop
      vertex 37.6573 4.41749 1.1
      vertex 37.0157 5.78104 -1.1
      vertex 37.0157 5.78104 1.1
    endloop
  endfacet
  facet normal 0.904827 0.42578 0
    outer loop
      vertex 37.0157 5.78104 -1.1
      vertex 37.6573 4.41749 1.1
      vertex 37.6573 4.41749 -1.1
    endloop
  endfacet
  facet normal 0.982287 0.187382 0
    outer loop
      vertex 38.4054 1.504 1.1
      vertex 38.123 2.98428 -1.1
      vertex 38.123 2.98428 1.1
    endloop
  endfacet
  facet normal 0.982287 0.187382 0
    outer loop
      vertex 38.123 2.98428 -1.1
      vertex 38.4054 1.504 1.1
      vertex 38.4054 1.504 -1.1
    endloop
  endfacet
  facet normal 0.844328 0.535827 0
    outer loop
      vertex 37.0157 5.78104 1.1
      vertex 36.2082 7.05342 -1.1
      vertex 36.2082 7.05342 1.1
    endloop
  endfacet
  facet normal 0.844328 0.535827 0
    outer loop
      vertex 36.2082 7.05342 -1.1
      vertex 37.0157 5.78104 1.1
      vertex 37.0157 5.78104 -1.1
    endloop
  endfacet
  facet normal 0.951057 0.309016 0
    outer loop
      vertex 38.123 2.98428 1.1
      vertex 37.6573 4.41749 -1.1
      vertex 37.6573 4.41749 1.1
    endloop
  endfacet
  facet normal 0.951057 0.309016 0
    outer loop
      vertex 37.6573 4.41749 -1.1
      vertex 38.123 2.98428 1.1
      vertex 38.123 2.98428 -1.1
    endloop
  endfacet
  facet normal 0.770513 0.637424 0
    outer loop
      vertex 36.2082 7.05342 1.1
      vertex 35.3424 8.1 -1.1
      vertex 35.3424 8.1 1.1
    endloop
  endfacet
  facet normal 0.770513 0.637424 0
    outer loop
      vertex 35.3424 8.1 -1.1
      vertex 36.2082 7.05342 1.1
      vertex 36.2082 7.05342 -1.1
    endloop
  endfacet
  facet normal 0.998027 -0.0627905 0
    outer loop
      vertex 38.4054 -1.504 1.1
      vertex 38.5 0 -1.1
      vertex 38.5 0 1.1
    endloop
  endfacet
  facet normal 0.998027 -0.0627905 0
    outer loop
      vertex 38.5 0 -1.1
      vertex 38.4054 -1.504 1.1
      vertex 38.4054 -1.504 -1.1
    endloop
  endfacet
  facet normal 0.770513 -0.637424 0
    outer loop
      vertex 35.3424 -8.1 1.1
      vertex 36.2082 -7.05342 -1.1
      vertex 36.2082 -7.05342 1.1
    endloop
  endfacet
  facet normal 0.770513 -0.637424 0
    outer loop
      vertex 36.2082 -7.05342 -1.1
      vertex 35.3424 -8.1 1.1
      vertex 35.3424 -8.1 -1.1
    endloop
  endfacet
  facet normal 0.904827 -0.42578 0
    outer loop
      vertex 37.0157 -5.78104 1.1
      vertex 37.6573 -4.41749 -1.1
      vertex 37.6573 -4.41749 1.1
    endloop
  endfacet
  facet normal 0.904827 -0.42578 0
    outer loop
      vertex 37.6573 -4.41749 -1.1
      vertex 37.0157 -5.78104 1.1
      vertex 37.0157 -5.78104 -1.1
    endloop
  endfacet
  facet normal 0.982287 -0.187382 0
    outer loop
      vertex 38.123 -2.98428 1.1
      vertex 38.4054 -1.504 -1.1
      vertex 38.4054 -1.504 1.1
    endloop
  endfacet
  facet normal 0.982287 -0.187382 0
    outer loop
      vertex 38.4054 -1.504 -1.1
      vertex 38.123 -2.98428 1.1
      vertex 38.123 -2.98428 -1.1
    endloop
  endfacet
  facet normal 0.951057 -0.309016 0
    outer loop
      vertex 37.6573 -4.41749 1.1
      vertex 38.123 -2.98428 -1.1
      vertex 38.123 -2.98428 1.1
    endloop
  endfacet
  facet normal 0.951057 -0.309016 0
    outer loop
      vertex 38.123 -2.98428 -1.1
      vertex 37.6573 -4.41749 1.1
      vertex 37.6573 -4.41749 -1.1
    endloop
  endfacet
  facet normal -0.992115 -0.125332 0
    outer loop
      vertex -25.75 0 -1.1
      vertex -25.8442 0.746069 1.1
      vertex -25.8442 0.746069 -1.1
    endloop
  endfacet
  facet normal -0.992115 -0.125332 0
    outer loop
      vertex -25.8442 0.746069 1.1
      vertex -25.75 0 -1.1
      vertex -25.75 0 1.1
    endloop
  endfacet
  facet normal 1 -0 0
    outer loop
      vertex -31.7263 -0.375999 1.1
      vertex -31.7263 0.375999 -1.1
      vertex -31.7263 0.375999 1.1
    endloop
  endfacet
  facet normal 1 0 0
    outer loop
      vertex -31.7263 0.375999 -1.1
      vertex -31.7263 -0.375999 1.1
      vertex -31.7263 -0.375999 -1.1
    endloop
  endfacet
  facet normal 0.0627904 -0.998027 0
    outer loop
      vertex -29.3121 2.94686 -1.1
      vertex -28.5616 2.99408 1.1
      vertex -29.3121 2.94686 1.1
    endloop
  endfacet
  facet normal 0.0627904 -0.998027 0
    outer loop
      vertex -28.5616 2.99408 1.1
      vertex -29.3121 2.94686 -1.1
      vertex -28.5616 2.99408 -1.1
    endloop
  endfacet
  facet normal -0.187381 0.982287 0
    outer loop
      vertex -27.8229 -2.85317 -1.1
      vertex -28.5616 -2.99408 1.1
      vertex -27.8229 -2.85317 1.1
    endloop
  endfacet
  facet normal -0.187381 0.982287 0
    outer loop
      vertex -28.5616 -2.99408 1.1
      vertex -27.8229 -2.85317 -1.1
      vertex -28.5616 -2.99408 -1.1
    endloop
  endfacet
  facet normal -0.637424 -0.770513 0
    outer loop
      vertex -27.1425 2.53298 -1.1
      vertex -26.5631 2.05364 1.1
      vertex -27.1425 2.53298 1.1
    endloop
  endfacet
  facet normal -0.637424 -0.770513 -0
    outer loop
      vertex -26.5631 2.05364 1.1
      vertex -27.1425 2.53298 -1.1
      vertex -26.5631 2.05364 -1.1
    endloop
  endfacet
  facet normal -0.929777 -0.368123 0
    outer loop
      vertex -25.8442 0.746069 -1.1
      vertex -26.1211 1.44526 1.1
      vertex -26.1211 1.44526 -1.1
    endloop
  endfacet
  facet normal -0.929777 -0.368123 0
    outer loop
      vertex -26.1211 1.44526 1.1
      vertex -25.8442 0.746069 -1.1
      vertex -25.8442 0.746069 1.1
    endloop
  endfacet
  facet normal -0.42578 -0.904827 0
    outer loop
      vertex -27.8229 2.85317 -1.1
      vertex -27.1425 2.53298 1.1
      vertex -27.8229 2.85317 1.1
    endloop
  endfacet
  facet normal -0.42578 -0.904827 -0
    outer loop
      vertex -27.1425 2.53298 1.1
      vertex -27.8229 2.85317 -1.1
      vertex -27.1425 2.53298 -1.1
    endloop
  endfacet
  facet normal 0.728968 -0.684548 0
    outer loop
      vertex -31.1771 1.76336 1.1
      vertex -30.6623 2.31154 -1.1
      vertex -30.6623 2.31154 1.1
    endloop
  endfacet
  facet normal 0.728968 -0.684548 0
    outer loop
      vertex -30.6623 2.31154 -1.1
      vertex -31.1771 1.76336 1.1
      vertex -31.1771 1.76336 -1.1
    endloop
  endfacet
  facet normal 0.535825 -0.844329 0
    outer loop
      vertex -30.6623 2.31154 -1.1
      vertex -30.0273 2.71448 1.1
      vertex -30.6623 2.31154 1.1
    endloop
  endfacet
  facet normal 0.535825 -0.844329 0
    outer loop
      vertex -30.0273 2.71448 1.1
      vertex -30.6623 2.31154 -1.1
      vertex -30.0273 2.71448 -1.1
    endloop
  endfacet
  facet normal -0.809016 -0.587786 0
    outer loop
      vertex -26.1211 1.44526 -1.1
      vertex -26.5631 2.05364 1.1
      vertex -26.5631 2.05364 -1.1
    endloop
  endfacet
  facet normal -0.809016 -0.587786 0
    outer loop
      vertex -26.5631 2.05364 1.1
      vertex -26.1211 1.44526 -1.1
      vertex -26.1211 1.44526 1.1
    endloop
  endfacet
  facet normal -0.187381 -0.982287 0
    outer loop
      vertex -28.5616 2.99408 -1.1
      vertex -27.8229 2.85317 1.1
      vertex -28.5616 2.99408 1.1
    endloop
  endfacet
  facet normal -0.187381 -0.982287 -0
    outer loop
      vertex -27.8229 2.85317 1.1
      vertex -28.5616 2.99408 -1.1
      vertex -27.8229 2.85317 -1.1
    endloop
  endfacet
  facet normal 0.876307 -0.481753 0
    outer loop
      vertex -31.5393 1.10437 1.1
      vertex -31.1771 1.76336 -1.1
      vertex -31.1771 1.76336 1.1
    endloop
  endfacet
  facet normal 0.876307 -0.481753 0
    outer loop
      vertex -31.1771 1.76336 -1.1
      vertex -31.5393 1.10437 1.1
      vertex -31.5393 1.10437 -1.1
    endloop
  endfacet
  facet normal 0.968583 -0.248689 0
    outer loop
      vertex -31.7263 0.375999 1.1
      vertex -31.5393 1.10437 -1.1
      vertex -31.5393 1.10437 1.1
    endloop
  endfacet
  facet normal 0.968583 -0.248689 0
    outer loop
      vertex -31.5393 1.10437 -1.1
      vertex -31.7263 0.375999 1.1
      vertex -31.7263 0.375999 -1.1
    endloop
  endfacet
  facet normal 0.309018 -0.951056 0
    outer loop
      vertex -30.0273 2.71448 -1.1
      vertex -29.3121 2.94686 1.1
      vertex -30.0273 2.71448 1.1
    endloop
  endfacet
  facet normal 0.309018 -0.951056 0
    outer loop
      vertex -29.3121 2.94686 1.1
      vertex -30.0273 2.71448 -1.1
      vertex -29.3121 2.94686 -1.1
    endloop
  endfacet
  facet normal -0.992115 0.125332 0
    outer loop
      vertex -25.8442 -0.746069 -1.1
      vertex -25.75 0 1.1
      vertex -25.75 0 -1.1
    endloop
  endfacet
  facet normal -0.992115 0.125332 0
    outer loop
      vertex -25.75 0 1.1
      vertex -25.8442 -0.746069 -1.1
      vertex -25.8442 -0.746069 1.1
    endloop
  endfacet
  facet normal -0.809016 0.587786 0
    outer loop
      vertex -26.5631 -2.05364 -1.1
      vertex -26.1211 -1.44526 1.1
      vertex -26.1211 -1.44526 -1.1
    endloop
  endfacet
  facet normal -0.809016 0.587786 0
    outer loop
      vertex -26.1211 -1.44526 1.1
      vertex -26.5631 -2.05364 -1.1
      vertex -26.5631 -2.05364 1.1
    endloop
  endfacet
  facet normal -0.929777 0.368123 0
    outer loop
      vertex -26.1211 -1.44526 -1.1
      vertex -25.8442 -0.746069 1.1
      vertex -25.8442 -0.746069 -1.1
    endloop
  endfacet
  facet normal -0.929777 0.368123 0
    outer loop
      vertex -25.8442 -0.746069 1.1
      vertex -26.1211 -1.44526 -1.1
      vertex -26.1211 -1.44526 1.1
    endloop
  endfacet
  facet normal 0.535825 0.844329 -0
    outer loop
      vertex -30.0273 -2.71448 -1.1
      vertex -30.6623 -2.31154 1.1
      vertex -30.0273 -2.71448 1.1
    endloop
  endfacet
  facet normal 0.535825 0.844329 0
    outer loop
      vertex -30.6623 -2.31154 1.1
      vertex -30.0273 -2.71448 -1.1
      vertex -30.6623 -2.31154 -1.1
    endloop
  endfacet
  facet normal 0.728968 0.684548 0
    outer loop
      vertex -30.6623 -2.31154 1.1
      vertex -31.1771 -1.76336 -1.1
      vertex -31.1771 -1.76336 1.1
    endloop
  endfacet
  facet normal 0.728968 0.684548 0
    outer loop
      vertex -31.1771 -1.76336 -1.1
      vertex -30.6623 -2.31154 1.1
      vertex -30.6623 -2.31154 -1.1
    endloop
  endfacet
  facet normal 0.0627904 0.998027 -0
    outer loop
      vertex -28.5616 -2.99408 -1.1
      vertex -29.3121 -2.94686 1.1
      vertex -28.5616 -2.99408 1.1
    endloop
  endfacet
  facet normal 0.0627904 0.998027 0
    outer loop
      vertex -29.3121 -2.94686 1.1
      vertex -28.5616 -2.99408 -1.1
      vertex -29.3121 -2.94686 -1.1
    endloop
  endfacet
  facet normal 0.876307 0.481753 0
    outer loop
      vertex -31.1771 -1.76336 1.1
      vertex -31.5393 -1.10437 -1.1
      vertex -31.5393 -1.10437 1.1
    endloop
  endfacet
  facet normal 0.876307 0.481753 0
    outer loop
      vertex -31.5393 -1.10437 -1.1
      vertex -31.1771 -1.76336 1.1
      vertex -31.1771 -1.76336 -1.1
    endloop
  endfacet
  facet normal 0.968583 0.248689 0
    outer loop
      vertex -31.5393 -1.10437 1.1
      vertex -31.7263 -0.375999 -1.1
      vertex -31.7263 -0.375999 1.1
    endloop
  endfacet
  facet normal 0.968583 0.248689 0
    outer loop
      vertex -31.7263 -0.375999 -1.1
      vertex -31.5393 -1.10437 1.1
      vertex -31.5393 -1.10437 -1.1
    endloop
  endfacet
  facet normal -0.637424 0.770513 0
    outer loop
      vertex -26.5631 -2.05364 -1.1
      vertex -27.1425 -2.53298 1.1
      vertex -26.5631 -2.05364 1.1
    endloop
  endfacet
  facet normal -0.637424 0.770513 0
    outer loop
      vertex -27.1425 -2.53298 1.1
      vertex -26.5631 -2.05364 -1.1
      vertex -27.1425 -2.53298 -1.1
    endloop
  endfacet
  facet normal -0.42578 0.904827 0
    outer loop
      vertex -27.1425 -2.53298 -1.1
      vertex -27.8229 -2.85317 1.1
      vertex -27.1425 -2.53298 1.1
    endloop
  endfacet
  facet normal -0.42578 0.904827 0
    outer loop
      vertex -27.8229 -2.85317 1.1
      vertex -27.1425 -2.53298 -1.1
      vertex -27.8229 -2.85317 -1.1
    endloop
  endfacet
  facet normal 0.309018 0.951056 -0
    outer loop
      vertex -29.3121 -2.94686 -1.1
      vertex -30.0273 -2.71448 1.1
      vertex -29.3121 -2.94686 1.1
    endloop
  endfacet
  facet normal 0.309018 0.951056 0
    outer loop
      vertex -30.0273 -2.71448 1.1
      vertex -29.3121 -2.94686 -1.1
      vertex -30.0273 -2.71448 -1.1
    endloop
  endfacet
  facet normal -0.992115 -0.125332 0
    outer loop
      vertex -7.5 0 -1.1
      vertex -7.59425 0.746069 1.1
      vertex -7.59425 0.746069 -1.1
    endloop
  endfacet
  facet normal -0.992115 -0.125332 0
    outer loop
      vertex -7.59425 0.746069 1.1
      vertex -7.5 0 -1.1
      vertex -7.5 0 1.1
    endloop
  endfacet
  facet normal 1 -0 0
    outer loop
      vertex -13.4763 -0.375999 1.1
      vertex -13.4763 0.375999 -1.1
      vertex -13.4763 0.375999 1.1
    endloop
  endfacet
  facet normal 1 0 0
    outer loop
      vertex -13.4763 0.375999 -1.1
      vertex -13.4763 -0.375999 1.1
      vertex -13.4763 -0.375999 -1.1
    endloop
  endfacet
  facet normal 0.0627904 -0.998027 0
    outer loop
      vertex -11.0621 2.94686 -1.1
      vertex -10.3116 2.99408 1.1
      vertex -11.0621 2.94686 1.1
    endloop
  endfacet
  facet normal 0.0627904 -0.998027 0
    outer loop
      vertex -10.3116 2.99408 1.1
      vertex -11.0621 2.94686 -1.1
      vertex -10.3116 2.99408 -1.1
    endloop
  endfacet
  facet normal -0.187381 0.982287 0
    outer loop
      vertex -9.57295 -2.85317 -1.1
      vertex -10.3116 -2.99408 1.1
      vertex -9.57295 -2.85317 1.1
    endloop
  endfacet
  facet normal -0.187381 0.982287 0
    outer loop
      vertex -10.3116 -2.99408 1.1
      vertex -9.57295 -2.85317 -1.1
      vertex -10.3116 -2.99408 -1.1
    endloop
  endfacet
  facet normal -0.637424 -0.770513 0
    outer loop
      vertex -8.89252 2.53298 -1.1
      vertex -8.31309 2.05364 1.1
      vertex -8.89252 2.53298 1.1
    endloop
  endfacet
  facet normal -0.637424 -0.770513 -0
    outer loop
      vertex -8.31309 2.05364 1.1
      vertex -8.89252 2.53298 -1.1
      vertex -8.31309 2.05364 -1.1
    endloop
  endfacet
  facet normal -0.929776 -0.368125 0
    outer loop
      vertex -7.59425 0.746069 -1.1
      vertex -7.87108 1.44526 1.1
      vertex -7.87108 1.44526 -1.1
    endloop
  endfacet
  facet normal -0.929776 -0.368125 0
    outer loop
      vertex -7.87108 1.44526 1.1
      vertex -7.59425 0.746069 -1.1
      vertex -7.59425 0.746069 1.1
    endloop
  endfacet
  facet normal -0.42578 -0.904827 0
    outer loop
      vertex -9.57295 2.85317 -1.1
      vertex -8.89252 2.53298 1.1
      vertex -9.57295 2.85317 1.1
    endloop
  endfacet
  facet normal -0.42578 -0.904827 -0
    outer loop
      vertex -8.89252 2.53298 1.1
      vertex -9.57295 2.85317 -1.1
      vertex -8.89252 2.53298 -1.1
    endloop
  endfacet
  facet normal 0.728969 -0.684547 0
    outer loop
      vertex -12.9271 1.76336 1.1
      vertex -12.4123 2.31154 -1.1
      vertex -12.4123 2.31154 1.1
    endloop
  endfacet
  facet normal 0.728969 -0.684547 0
    outer loop
      vertex -12.4123 2.31154 -1.1
      vertex -12.9271 1.76336 1.1
      vertex -12.9271 1.76336 -1.1
    endloop
  endfacet
  facet normal 0.535826 -0.844328 0
    outer loop
      vertex -12.4123 2.31154 -1.1
      vertex -11.7773 2.71448 1.1
      vertex -12.4123 2.31154 1.1
    endloop
  endfacet
  facet normal 0.535826 -0.844328 0
    outer loop
      vertex -11.7773 2.71448 1.1
      vertex -12.4123 2.31154 -1.1
      vertex -11.7773 2.71448 -1.1
    endloop
  endfacet
  facet normal -0.809017 -0.587785 0
    outer loop
      vertex -7.87108 1.44526 -1.1
      vertex -8.31309 2.05364 1.1
      vertex -8.31309 2.05364 -1.1
    endloop
  endfacet
  facet normal -0.809017 -0.587785 0
    outer loop
      vertex -8.31309 2.05364 1.1
      vertex -7.87108 1.44526 -1.1
      vertex -7.87108 1.44526 1.1
    endloop
  endfacet
  facet normal -0.187381 -0.982287 0
    outer loop
      vertex -10.3116 2.99408 -1.1
      vertex -9.57295 2.85317 1.1
      vertex -10.3116 2.99408 1.1
    endloop
  endfacet
  facet normal -0.187381 -0.982287 -0
    outer loop
      vertex -9.57295 2.85317 1.1
      vertex -10.3116 2.99408 -1.1
      vertex -9.57295 2.85317 -1.1
    endloop
  endfacet
  facet normal 0.876307 -0.481753 0
    outer loop
      vertex -13.2893 1.10437 1.1
      vertex -12.9271 1.76336 -1.1
      vertex -12.9271 1.76336 1.1
    endloop
  endfacet
  facet normal 0.876307 -0.481753 0
    outer loop
      vertex -12.9271 1.76336 -1.1
      vertex -13.2893 1.10437 1.1
      vertex -13.2893 1.10437 -1.1
    endloop
  endfacet
  facet normal 0.968583 -0.24869 0
    outer loop
      vertex -13.4763 0.375999 1.1
      vertex -13.2893 1.10437 -1.1
      vertex -13.2893 1.10437 1.1
    endloop
  endfacet
  facet normal 0.968583 -0.24869 0
    outer loop
      vertex -13.2893 1.10437 -1.1
      vertex -13.4763 0.375999 1.1
      vertex -13.4763 0.375999 -1.1
    endloop
  endfacet
  facet normal 0.309017 -0.951056 0
    outer loop
      vertex -11.7773 2.71448 -1.1
      vertex -11.0621 2.94686 1.1
      vertex -11.7773 2.71448 1.1
    endloop
  endfacet
  facet normal 0.309017 -0.951056 0
    outer loop
      vertex -11.0621 2.94686 1.1
      vertex -11.7773 2.71448 -1.1
      vertex -11.0621 2.94686 -1.1
    endloop
  endfacet
  facet normal -0.809017 0.587785 0
    outer loop
      vertex -8.31309 -2.05364 -1.1
      vertex -7.87108 -1.44526 1.1
      vertex -7.87108 -1.44526 -1.1
    endloop
  endfacet
  facet normal -0.809017 0.587785 0
    outer loop
      vertex -7.87108 -1.44526 1.1
      vertex -8.31309 -2.05364 -1.1
      vertex -8.31309 -2.05364 1.1
    endloop
  endfacet
  facet normal -0.929776 0.368125 0
    outer loop
      vertex -7.87108 -1.44526 -1.1
      vertex -7.59425 -0.746069 1.1
      vertex -7.59425 -0.746069 -1.1
    endloop
  endfacet
  facet normal -0.929776 0.368125 0
    outer loop
      vertex -7.59425 -0.746069 1.1
      vertex -7.87108 -1.44526 -1.1
      vertex -7.87108 -1.44526 1.1
    endloop
  endfacet
  facet normal 0.728969 0.684547 0
    outer loop
      vertex -12.4123 -2.31154 1.1
      vertex -12.9271 -1.76336 -1.1
      vertex -12.9271 -1.76336 1.1
    endloop
  endfacet
  facet normal 0.728969 0.684547 0
    outer loop
      vertex -12.9271 -1.76336 -1.1
      vertex -12.4123 -2.31154 1.1
      vertex -12.4123 -2.31154 -1.1
    endloop
  endfacet
  facet normal 0.968583 0.24869 0
    outer loop
      vertex -13.2893 -1.10437 1.1
      vertex -13.4763 -0.375999 -1.1
      vertex -13.4763 -0.375999 1.1
    endloop
  endfacet
  facet normal 0.968583 0.24869 0
    outer loop
      vertex -13.4763 -0.375999 -1.1
      vertex -13.2893 -1.10437 1.1
      vertex -13.2893 -1.10437 -1.1
    endloop
  endfacet
  facet normal -0.42578 0.904827 0
    outer loop
      vertex -8.89252 -2.53298 -1.1
      vertex -9.57295 -2.85317 1.1
      vertex -8.89252 -2.53298 1.1
    endloop
  endfacet
  facet normal -0.42578 0.904827 0
    outer loop
      vertex -9.57295 -2.85317 1.1
      vertex -8.89252 -2.53298 -1.1
      vertex -9.57295 -2.85317 -1.1
    endloop
  endfacet
  facet normal -0.992115 0.125332 0
    outer loop
      vertex -7.59425 -0.746069 -1.1
      vertex -7.5 0 1.1
      vertex -7.5 0 -1.1
    endloop
  endfacet
  facet normal -0.992115 0.125332 0
    outer loop
      vertex -7.5 0 1.1
      vertex -7.59425 -0.746069 -1.1
      vertex -7.59425 -0.746069 1.1
    endloop
  endfacet
  facet normal 0.535826 0.844328 -0
    outer loop
      vertex -11.7773 -2.71448 -1.1
      vertex -12.4123 -2.31154 1.1
      vertex -11.7773 -2.71448 1.1
    endloop
  endfacet
  facet normal 0.535826 0.844328 0
    outer loop
      vertex -12.4123 -2.31154 1.1
      vertex -11.7773 -2.71448 -1.1
      vertex -12.4123 -2.31154 -1.1
    endloop
  endfacet
  facet normal 0.0627904 0.998027 -0
    outer loop
      vertex -10.3116 -2.99408 -1.1
      vertex -11.0621 -2.94686 1.1
      vertex -10.3116 -2.99408 1.1
    endloop
  endfacet
  facet normal 0.0627904 0.998027 0
    outer loop
      vertex -11.0621 -2.94686 1.1
      vertex -10.3116 -2.99408 -1.1
      vertex -11.0621 -2.94686 -1.1
    endloop
  endfacet
  facet normal 0.309017 0.951056 -0
    outer loop
      vertex -11.0621 -2.94686 -1.1
      vertex -11.7773 -2.71448 1.1
      vertex -11.0621 -2.94686 1.1
    endloop
  endfacet
  facet normal 0.309017 0.951056 0
    outer loop
      vertex -11.7773 -2.71448 1.1
      vertex -11.0621 -2.94686 -1.1
      vertex -11.7773 -2.71448 -1.1
    endloop
  endfacet
  facet normal 0.876307 0.481753 0
    outer loop
      vertex -12.9271 -1.76336 1.1
      vertex -13.2893 -1.10437 -1.1
      vertex -13.2893 -1.10437 1.1
    endloop
  endfacet
  facet normal 0.876307 0.481753 0
    outer loop
      vertex -13.2893 -1.10437 -1.1
      vertex -12.9271 -1.76336 1.1
      vertex -12.9271 -1.76336 -1.1
    endloop
  endfacet
  facet normal -0.637424 0.770513 0
    outer loop
      vertex -8.31309 -2.05364 -1.1
      vertex -8.89252 -2.53298 1.1
      vertex -8.31309 -2.05364 1.1
    endloop
  endfacet
  facet normal -0.637424 0.770513 0
    outer loop
      vertex -8.89252 -2.53298 1.1
      vertex -8.31309 -2.05364 -1.1
      vertex -8.89252 -2.53298 -1.1
    endloop
  endfacet
  facet normal 0 0 1
    outer loop
      vertex 33.75 0 1.1
      vertex 38.5 0 1.1
      vertex 38.4054 1.504 1.1
    endloop
  endfacet
  facet normal 0 0 1
    outer loop
      vertex 33.6558 0.746069 1.1
      vertex 38.4054 1.504 1.1
      vertex 38.123 2.98428 1.1
    endloop
  endfacet
  facet normal 0 0 1
    outer loop
      vertex 38.5 0 1.1
      vertex 33.75 0 1.1
      vertex 38.4054 -1.504 1.1
    endloop
  endfacet
  facet normal 0 0 1
    outer loop
      vertex 33.3789 1.44526 1.1
      vertex 38.123 2.98428 1.1
      vertex 37.6573 4.41749 1.1
    endloop
  endfacet
  facet normal -0 0 1
    outer loop
      vertex 33.6558 -0.746069 1.1
      vertex 38.4054 -1.504 1.1
      vertex 33.75 0 1.1
    endloop
  endfacet
  facet normal 0 0 1
    outer loop
      vertex 32.9369 2.05364 1.1
      vertex 37.6573 4.41749 1.1
      vertex 37.0157 5.78104 1.1
    endloop
  endfacet
  facet normal 0 0 1
    outer loop
      vertex 38.4054 -1.504 1.1
      vertex 33.6558 -0.746069 1.1
      vertex 38.123 -2.98428 1.1
    endloop
  endfacet
  facet normal 0 0 1
    outer loop
      vertex 32.3575 2.53298 1.1
      vertex 37.0157 5.78104 1.1
      vertex 36.2082 7.05342 1.1
    endloop
  endfacet
  facet normal -0 0 1
    outer loop
      vertex 33.3789 -1.44526 1.1
      vertex 38.123 -2.98428 1.1
      vertex 33.6558 -0.746069 1.1
    endloop
  endfacet
  facet normal 0 0 1
    outer loop
      vertex 32.3575 2.53298 1.1
      vertex 36.2082 7.05342 1.1
      vertex 35.3424 8.1 1.1
    endloop
  endfacet
  facet normal 0 0 1
    outer loop
      vertex 38.123 -2.98428 1.1
      vertex 33.3789 -1.44526 1.1
      vertex 37.6573 -4.41749 1.1
    endloop
  endfacet
  facet normal -0 0 1
    outer loop
      vertex 32.9369 -2.05364 1.1
      vertex 37.6573 -4.41749 1.1
      vertex 33.3789 -1.44526 1.1
    endloop
  endfacet
  facet normal 0 0 1
    outer loop
      vertex 38.4054 1.504 1.1
      vertex 33.6558 0.746069 1.1
      vertex 33.75 0 1.1
    endloop
  endfacet
  facet normal 0 0 1
    outer loop
      vertex 38.123 2.98428 1.1
      vertex 33.3789 1.44526 1.1
      vertex 33.6558 0.746069 1.1
    endloop
  endfacet
  facet normal 0 0 1
    outer loop
      vertex 37.6573 4.41749 1.1
      vertex 32.9369 2.05364 1.1
      vertex 33.3789 1.44526 1.1
    endloop
  endfacet
  facet normal 0 0 1
    outer loop
      vertex 37.0157 5.78104 1.1
      vertex 32.3575 2.53298 1.1
      vertex 32.9369 2.05364 1.1
    endloop
  endfacet
  facet normal 0 0 1
    outer loop
      vertex 35.3424 8.1 1.1
      vertex 31.6771 2.85317 1.1
      vertex 32.3575 2.53298 1.1
    endloop
  endfacet
  facet normal 0 0 1
    outer loop
      vertex 35.3424 8.1 1.1
      vertex 30.9384 2.99408 1.1
      vertex 31.6771 2.85317 1.1
    endloop
  endfacet
  facet normal 0 0 1
    outer loop
      vertex 35.3424 8.1 1.1
      vertex 30.1879 2.94686 1.1
      vertex 30.9384 2.99408 1.1
    endloop
  endfacet
  facet normal 0 0 1
    outer loop
      vertex 35.3424 8.1 1.1
      vertex 29.4727 2.71448 1.1
      vertex 30.1879 2.94686 1.1
    endloop
  endfacet
  facet normal 0 0 1
    outer loop
      vertex 14.1075 2.53298 1.1
      vertex 29.4727 2.71448 1.1
      vertex 35.3424 8.1 1.1
    endloop
  endfacet
  facet normal 0 0 1
    outer loop
      vertex 27.7737 0.375999 1.1
      vertex 15.5 0 1.1
      vertex 27.7737 -0.375999 1.1
    endloop
  endfacet
  facet normal -0 0 1
    outer loop
      vertex 15.4057 0.746069 1.1
      vertex 27.7737 0.375999 1.1
      vertex 27.9607 1.10437 1.1
    endloop
  endfacet
  facet normal -0 0 1
    outer loop
      vertex 15.1289 1.44526 1.1
      vertex 27.9607 1.10437 1.1
      vertex 28.3229 1.76336 1.1
    endloop
  endfacet
  facet normal -0 0 1
    outer loop
      vertex 14.6869 2.05364 1.1
      vertex 28.3229 1.76336 1.1
      vertex 28.8377 2.31154 1.1
    endloop
  endfacet
  facet normal 0 0 1
    outer loop
      vertex 29.4727 2.71448 1.1
      vertex 14.1075 2.53298 1.1
      vertex 28.8377 2.31154 1.1
    endloop
  endfacet
  facet normal 0 0 1
    outer loop
      vertex 27.7737 0.375999 1.1
      vertex 15.4057 0.746069 1.1
      vertex 15.5 0 1.1
    endloop
  endfacet
  facet normal 0 0 1
    outer loop
      vertex 27.9607 1.10437 1.1
      vertex 15.1289 1.44526 1.1
      vertex 15.4057 0.746069 1.1
    endloop
  endfacet
  facet normal 0 0 1
    outer loop
      vertex 28.3229 1.76336 1.1
      vertex 14.6869 2.05364 1.1
      vertex 15.1289 1.44526 1.1
    endloop
  endfacet
  facet normal 0 0 1
    outer loop
      vertex 28.8377 2.31154 1.1
      vertex 14.1075 2.53298 1.1
      vertex 14.6869 2.05364 1.1
    endloop
  endfacet
  facet normal 0 0 1
    outer loop
      vertex 35.3424 8.1 1.1
      vertex 13.4271 2.85317 1.1
      vertex 14.1075 2.53298 1.1
    endloop
  endfacet
  facet normal 0 0 1
    outer loop
      vertex 35.3424 8.1 1.1
      vertex 12.6884 2.99408 1.1
      vertex 13.4271 2.85317 1.1
    endloop
  endfacet
  facet normal 0 0 1
    outer loop
      vertex 35.3424 8.1 1.1
      vertex 11.9379 2.94686 1.1
      vertex 12.6884 2.99408 1.1
    endloop
  endfacet
  facet normal 0 0 1
    outer loop
      vertex 9.52366 0.375999 1.1
      vertex -7.5 0 1.1
      vertex 9.52366 -0.375999 1.1
    endloop
  endfacet
  facet normal -0 0 1
    outer loop
      vertex -7.59425 0.746069 1.1
      vertex 9.52366 0.375999 1.1
      vertex 9.71067 1.10437 1.1
    endloop
  endfacet
  facet normal -0 0 1
    outer loop
      vertex -7.87108 1.44526 1.1
      vertex 9.71067 1.10437 1.1
      vertex 10.0729 1.76336 1.1
    endloop
  endfacet
  facet normal -0 0 1
    outer loop
      vertex -8.31309 2.05364 1.1
      vertex 10.0729 1.76336 1.1
      vertex 10.5877 2.31154 1.1
    endloop
  endfacet
  facet normal -0 0 1
    outer loop
      vertex -8.89252 2.53298 1.1
      vertex 10.5877 2.31154 1.1
      vertex 11.2227 2.71448 1.1
    endloop
  endfacet
  facet normal -0 0 1
    outer loop
      vertex -9.57295 2.85317 1.1
      vertex 11.2227 2.71448 1.1
      vertex 11.9379 2.94686 1.1
    endloop
  endfacet
  facet normal -0 0 1
    outer loop
      vertex -10.3116 2.99408 1.1
      vertex 11.9379 2.94686 1.1
      vertex 35.3424 8.1 1.1
    endloop
  endfacet
  facet normal 0 0 1
    outer loop
      vertex 9.52366 0.375999 1.1
      vertex -7.59425 0.746069 1.1
      vertex -7.5 0 1.1
    endloop
  endfacet
  facet normal 0 0 1
    outer loop
      vertex 9.71067 1.10437 1.1
      vertex -7.87108 1.44526 1.1
      vertex -7.59425 0.746069 1.1
    endloop
  endfacet
  facet normal 0 0 1
    outer loop
      vertex 10.0729 1.76336 1.1
      vertex -8.31309 2.05364 1.1
      vertex -7.87108 1.44526 1.1
    endloop
  endfacet
  facet normal 0 0 1
    outer loop
      vertex 10.5877 2.31154 1.1
      vertex -8.89252 2.53298 1.1
      vertex -8.31309 2.05364 1.1
    endloop
  endfacet
  facet normal 0 0 1
    outer loop
      vertex 11.2227 2.71448 1.1
      vertex -9.57295 2.85317 1.1
      vertex -8.89252 2.53298 1.1
    endloop
  endfacet
  facet normal 0 0 1
    outer loop
      vertex 11.9379 2.94686 1.1
      vertex -10.3116 2.99408 1.1
      vertex -9.57295 2.85317 1.1
    endloop
  endfacet
  facet normal -0 0 1
    outer loop
      vertex -35.3424 8.1 1.1
      vertex -10.3116 2.99408 1.1
      vertex 35.3424 8.1 1.1
    endloop
  endfacet
  facet normal 0 0 1
    outer loop
      vertex -13.4763 0.375999 1.1
      vertex -25.75 0 1.1
      vertex -13.4763 -0.375999 1.1
    endloop
  endfacet
  facet normal -0 0 1
    outer loop
      vertex -25.8442 0.746069 1.1
      vertex -13.4763 0.375999 1.1
      vertex -13.2893 1.10437 1.1
    endloop
  endfacet
  facet normal -0 0 1
    outer loop
      vertex -26.1211 1.44526 1.1
      vertex -13.2893 1.10437 1.1
      vertex -12.9271 1.76336 1.1
    endloop
  endfacet
  facet normal -0 0 1
    outer loop
      vertex -26.5631 2.05364 1.1
      vertex -12.9271 1.76336 1.1
      vertex -12.4123 2.31154 1.1
    endloop
  endfacet
  facet normal -0 0 1
    outer loop
      vertex -27.1425 2.53298 1.1
      vertex -12.4123 2.31154 1.1
      vertex -11.7773 2.71448 1.1
    endloop
  endfacet
  facet normal 0 0 1
    outer loop
      vertex -35.3424 8.1 1.1
      vertex -11.7773 2.71448 1.1
      vertex -11.0621 2.94686 1.1
    endloop
  endfacet
  facet normal 0 0 1
    outer loop
      vertex -13.4763 0.375999 1.1
      vertex -25.8442 0.746069 1.1
      vertex -25.75 0 1.1
    endloop
  endfacet
  facet normal 0 0 1
    outer loop
      vertex -13.2893 1.10437 1.1
      vertex -26.1211 1.44526 1.1
      vertex -25.8442 0.746069 1.1
    endloop
  endfacet
  facet normal 0 0 1
    outer loop
      vertex -10.3116 2.99408 1.1
      vertex -35.3424 8.1 1.1
      vertex -11.0621 2.94686 1.1
    endloop
  endfacet
  facet normal 0 0 1
    outer loop
      vertex -12.9271 1.76336 1.1
      vertex -26.5631 2.05364 1.1
      vertex -26.1211 1.44526 1.1
    endloop
  endfacet
  facet normal 0 0 1
    outer loop
      vertex -12.4123 2.31154 1.1
      vertex -27.1425 2.53298 1.1
      vertex -26.5631 2.05364 1.1
    endloop
  endfacet
  facet normal 0 0 1
    outer loop
      vertex -11.7773 2.71448 1.1
      vertex -35.3424 8.1 1.1
      vertex -27.8229 2.85317 1.1
    endloop
  endfacet
  facet normal 0 0 1
    outer loop
      vertex -11.7773 2.71448 1.1
      vertex -27.8229 2.85317 1.1
      vertex -27.1425 2.53298 1.1
    endloop
  endfacet
  facet normal 0 0 1
    outer loop
      vertex -27.8229 2.85317 1.1
      vertex -35.3424 8.1 1.1
      vertex -28.5616 2.99408 1.1
    endloop
  endfacet
  facet normal -0 0 1
    outer loop
      vertex -37.6573 4.41749 1.1
      vertex -31.1771 1.76336 1.1
      vertex -37.0157 5.78104 1.1
    endloop
  endfacet
  facet normal -0 0 1
    outer loop
      vertex -37.0157 5.78104 1.1
      vertex -31.1771 1.76336 1.1
      vertex -36.2082 7.05342 1.1
    endloop
  endfacet
  facet normal 0 0 1
    outer loop
      vertex -30.6623 2.31154 1.1
      vertex -36.2082 7.05342 1.1
      vertex -31.1771 1.76336 1.1
    endloop
  endfacet
  facet normal -0 0 1
    outer loop
      vertex -36.2082 7.05342 1.1
      vertex -30.6623 2.31154 1.1
      vertex -35.3424 8.1 1.1
    endloop
  endfacet
  facet normal 0 0 1
    outer loop
      vertex -30.0273 2.71448 1.1
      vertex -35.3424 8.1 1.1
      vertex -30.6623 2.31154 1.1
    endloop
  endfacet
  facet normal 0 0 1
    outer loop
      vertex -29.3121 2.94686 1.1
      vertex -35.3424 8.1 1.1
      vertex -30.0273 2.71448 1.1
    endloop
  endfacet
  facet normal 0 0 1
    outer loop
      vertex -28.5616 2.99408 1.1
      vertex -35.3424 8.1 1.1
      vertex -29.3121 2.94686 1.1
    endloop
  endfacet
  facet normal 0 0 1
    outer loop
      vertex 37.6573 -4.41749 1.1
      vertex 32.9369 -2.05364 1.1
      vertex 37.0157 -5.78104 1.1
    endloop
  endfacet
  facet normal -0 0 1
    outer loop
      vertex 32.3575 -2.53298 1.1
      vertex 37.0157 -5.78104 1.1
      vertex 32.9369 -2.05364 1.1
    endloop
  endfacet
  facet normal 0 0 1
    outer loop
      vertex 37.0157 -5.78104 1.1
      vertex 32.3575 -2.53298 1.1
      vertex 36.2082 -7.05342 1.1
    endloop
  endfacet
  facet normal 0 0 1
    outer loop
      vertex 36.2082 -7.05342 1.1
      vertex 32.3575 -2.53298 1.1
      vertex 35.3424 -8.1 1.1
    endloop
  endfacet
  facet normal -0 0 1
    outer loop
      vertex 31.6771 -2.85317 1.1
      vertex 35.3424 -8.1 1.1
      vertex 32.3575 -2.53298 1.1
    endloop
  endfacet
  facet normal -0 0 1
    outer loop
      vertex 30.9384 -2.99408 1.1
      vertex 35.3424 -8.1 1.1
      vertex 31.6771 -2.85317 1.1
    endloop
  endfacet
  facet normal 0 0 1
    outer loop
      vertex 30.1879 -2.94686 1.1
      vertex 35.3424 -8.1 1.1
      vertex 30.9384 -2.99408 1.1
    endloop
  endfacet
  facet normal 0 0 1
    outer loop
      vertex 29.4727 -2.71448 1.1
      vertex 35.3424 -8.1 1.1
      vertex 30.1879 -2.94686 1.1
    endloop
  endfacet
  facet normal -0 0 1
    outer loop
      vertex 14.1075 -2.53298 1.1
      vertex 29.4727 -2.71448 1.1
      vertex 28.8377 -2.31154 1.1
    endloop
  endfacet
  facet normal 0 0 1
    outer loop
      vertex 15.4057 -0.746069 1.1
      vertex 27.7737 -0.375999 1.1
      vertex 15.5 0 1.1
    endloop
  endfacet
  facet normal 0 0 1
    outer loop
      vertex 27.7737 -0.375999 1.1
      vertex 15.4057 -0.746069 1.1
      vertex 27.9607 -1.10437 1.1
    endloop
  endfacet
  facet normal 0 0 1
    outer loop
      vertex 15.1289 -1.44526 1.1
      vertex 27.9607 -1.10437 1.1
      vertex 15.4057 -0.746069 1.1
    endloop
  endfacet
  facet normal 0 0 1
    outer loop
      vertex 27.9607 -1.10437 1.1
      vertex 15.1289 -1.44526 1.1
      vertex 28.3229 -1.76336 1.1
    endloop
  endfacet
  facet normal 0 0 1
    outer loop
      vertex 14.6869 -2.05364 1.1
      vertex 28.3229 -1.76336 1.1
      vertex 15.1289 -1.44526 1.1
    endloop
  endfacet
  facet normal 0 0 1
    outer loop
      vertex 28.3229 -1.76336 1.1
      vertex 14.6869 -2.05364 1.1
      vertex 28.8377 -2.31154 1.1
    endloop
  endfacet
  facet normal 0 0 1
    outer loop
      vertex 14.1075 -2.53298 1.1
      vertex 28.8377 -2.31154 1.1
      vertex 14.6869 -2.05364 1.1
    endloop
  endfacet
  facet normal 0 0 1
    outer loop
      vertex 29.4727 -2.71448 1.1
      vertex 14.1075 -2.53298 1.1
      vertex 35.3424 -8.1 1.1
    endloop
  endfacet
  facet normal -0 0 1
    outer loop
      vertex 13.4271 -2.85317 1.1
      vertex 35.3424 -8.1 1.1
      vertex 14.1075 -2.53298 1.1
    endloop
  endfacet
  facet normal -0 0 1
    outer loop
      vertex 12.6884 -2.99408 1.1
      vertex 35.3424 -8.1 1.1
      vertex 13.4271 -2.85317 1.1
    endloop
  endfacet
  facet normal 0 0 1
    outer loop
      vertex 11.9379 -2.94686 1.1
      vertex 35.3424 -8.1 1.1
      vertex 12.6884 -2.99408 1.1
    endloop
  endfacet
  facet normal 0 0 1
    outer loop
      vertex -7.59425 -0.746069 1.1
      vertex 9.52366 -0.375999 1.1
      vertex -7.5 0 1.1
    endloop
  endfacet
  facet normal 0 0 1
    outer loop
      vertex 9.52366 -0.375999 1.1
      vertex -7.59425 -0.746069 1.1
      vertex 9.71067 -1.10437 1.1
    endloop
  endfacet
  facet normal 0 0 1
    outer loop
      vertex -7.87108 -1.44526 1.1
      vertex 9.71067 -1.10437 1.1
      vertex -7.59425 -0.746069 1.1
    endloop
  endfacet
  facet normal 0 0 1
    outer loop
      vertex 9.71067 -1.10437 1.1
      vertex -7.87108 -1.44526 1.1
      vertex 10.0729 -1.76336 1.1
    endloop
  endfacet
  facet normal 0 0 1
    outer loop
      vertex -8.31309 -2.05364 1.1
      vertex 10.0729 -1.76336 1.1
      vertex -7.87108 -1.44526 1.1
    endloop
  endfacet
  facet normal 0 0 1
    outer loop
      vertex 10.0729 -1.76336 1.1
      vertex -8.31309 -2.05364 1.1
      vertex 10.5877 -2.31154 1.1
    endloop
  endfacet
  facet normal 0 0 1
    outer loop
      vertex -8.89252 -2.53298 1.1
      vertex 10.5877 -2.31154 1.1
      vertex -8.31309 -2.05364 1.1
    endloop
  endfacet
  facet normal 0 0 1
    outer loop
      vertex 10.5877 -2.31154 1.1
      vertex -8.89252 -2.53298 1.1
      vertex 11.2227 -2.71448 1.1
    endloop
  endfacet
  facet normal 0 0 1
    outer loop
      vertex -9.57295 -2.85317 1.1
      vertex 11.2227 -2.71448 1.1
      vertex -8.89252 -2.53298 1.1
    endloop
  endfacet
  facet normal 0 0 1
    outer loop
      vertex 11.2227 -2.71448 1.1
      vertex -9.57295 -2.85317 1.1
      vertex 11.9379 -2.94686 1.1
    endloop
  endfacet
  facet normal 0 0 1
    outer loop
      vertex -10.3116 -2.99408 1.1
      vertex 11.9379 -2.94686 1.1
      vertex -9.57295 -2.85317 1.1
    endloop
  endfacet
  facet normal 0 0 1
    outer loop
      vertex 11.9379 -2.94686 1.1
      vertex -10.3116 -2.99408 1.1
      vertex 35.3424 -8.1 1.1
    endloop
  endfacet
  facet normal 0 0 1
    outer loop
      vertex -35.3424 -8.1 1.1
      vertex -10.3116 -2.99408 1.1
      vertex -11.0621 -2.94686 1.1
    endloop
  endfacet
  facet normal 0 0 1
    outer loop
      vertex -25.8442 -0.746069 1.1
      vertex -13.4763 -0.375999 1.1
      vertex -25.75 0 1.1
    endloop
  endfacet
  facet normal 0 0 1
    outer loop
      vertex -13.4763 -0.375999 1.1
      vertex -25.8442 -0.746069 1.1
      vertex -13.2893 -1.10437 1.1
    endloop
  endfacet
  facet normal 0 0 1
    outer loop
      vertex -26.1211 -1.44526 1.1
      vertex -13.2893 -1.10437 1.1
      vertex -25.8442 -0.746069 1.1
    endloop
  endfacet
  facet normal 0 0 1
    outer loop
      vertex -13.2893 -1.10437 1.1
      vertex -26.1211 -1.44526 1.1
      vertex -12.9271 -1.76336 1.1
    endloop
  endfacet
  facet normal 0 0 1
    outer loop
      vertex -26.5631 -2.05364 1.1
      vertex -12.9271 -1.76336 1.1
      vertex -26.1211 -1.44526 1.1
    endloop
  endfacet
  facet normal 0 0 1
    outer loop
      vertex -12.9271 -1.76336 1.1
      vertex -26.5631 -2.05364 1.1
      vertex -12.4123 -2.31154 1.1
    endloop
  endfacet
  facet normal 0 0 1
    outer loop
      vertex -27.1425 -2.53298 1.1
      vertex -12.4123 -2.31154 1.1
      vertex -26.5631 -2.05364 1.1
    endloop
  endfacet
  facet normal 0 0 1
    outer loop
      vertex -12.4123 -2.31154 1.1
      vertex -27.1425 -2.53298 1.1
      vertex -11.7773 -2.71448 1.1
    endloop
  endfacet
  facet normal 0 0 1
    outer loop
      vertex -27.8229 -2.85317 1.1
      vertex -11.7773 -2.71448 1.1
      vertex -27.1425 -2.53298 1.1
    endloop
  endfacet
  facet normal 0 0 1
    outer loop
      vertex -35.3424 -8.1 1.1
      vertex -11.7773 -2.71448 1.1
      vertex -27.8229 -2.85317 1.1
    endloop
  endfacet
  facet normal 0 0 1
    outer loop
      vertex -11.7773 -2.71448 1.1
      vertex -35.3424 -8.1 1.1
      vertex -11.0621 -2.94686 1.1
    endloop
  endfacet
  facet normal 0 0 1
    outer loop
      vertex -35.3424 -8.1 1.1
      vertex -27.8229 -2.85317 1.1
      vertex -28.5616 -2.99408 1.1
    endloop
  endfacet
  facet normal 0 0 1
    outer loop
      vertex -35.3424 -8.1 1.1
      vertex -28.5616 -2.99408 1.1
      vertex -29.3121 -2.94686 1.1
    endloop
  endfacet
  facet normal 0 0 1
    outer loop
      vertex -31.1771 1.76336 1.1
      vertex -37.6573 4.41749 1.1
      vertex -31.5393 1.10437 1.1
    endloop
  endfacet
  facet normal 0 0 1
    outer loop
      vertex -10.3116 -2.99408 1.1
      vertex -35.3424 -8.1 1.1
      vertex 35.3424 -8.1 1.1
    endloop
  endfacet
  facet normal 0 0 1
    outer loop
      vertex -30.0273 -2.71448 1.1
      vertex -35.3424 -8.1 1.1
      vertex -29.3121 -2.94686 1.1
    endloop
  endfacet
  facet normal 0 0 1
    outer loop
      vertex -30.6623 -2.31154 1.1
      vertex -35.3424 -8.1 1.1
      vertex -30.0273 -2.71448 1.1
    endloop
  endfacet
  facet normal 0 0 1
    outer loop
      vertex -36.2082 -7.05342 1.1
      vertex -30.6623 -2.31154 1.1
      vertex -31.1771 -1.76336 1.1
    endloop
  endfacet
  facet normal 0 0 1
    outer loop
      vertex -37.6573 -4.41749 1.1
      vertex -31.1771 -1.76336 1.1
      vertex -31.5393 -1.10437 1.1
    endloop
  endfacet
  facet normal -0 0 1
    outer loop
      vertex -38.123 2.98428 1.1
      vertex -31.5393 1.10437 1.1
      vertex -37.6573 4.41749 1.1
    endloop
  endfacet
  facet normal 0 0 1
    outer loop
      vertex -31.5393 1.10437 1.1
      vertex -38.123 2.98428 1.1
      vertex -31.7263 0.375999 1.1
    endloop
  endfacet
  facet normal 0 0 1
    outer loop
      vertex -30.6623 -2.31154 1.1
      vertex -36.2082 -7.05342 1.1
      vertex -35.3424 -8.1 1.1
    endloop
  endfacet
  facet normal -0 0 1
    outer loop
      vertex -38.4054 1.504 1.1
      vertex -31.7263 0.375999 1.1
      vertex -38.123 2.98428 1.1
    endloop
  endfacet
  facet normal 0 0 1
    outer loop
      vertex -31.1771 -1.76336 1.1
      vertex -37.0157 -5.78104 1.1
      vertex -36.2082 -7.05342 1.1
    endloop
  endfacet
  facet normal 0 0 1
    outer loop
      vertex -38.5 0 1.1
      vertex -31.7263 0.375999 1.1
      vertex -38.4054 1.504 1.1
    endloop
  endfacet
  facet normal 0 0 1
    outer loop
      vertex -31.1771 -1.76336 1.1
      vertex -37.6573 -4.41749 1.1
      vertex -37.0157 -5.78104 1.1
    endloop
  endfacet
  facet normal 0 0 1
    outer loop
      vertex -31.7263 0.375999 1.1
      vertex -38.5 0 1.1
      vertex -31.7263 -0.375999 1.1
    endloop
  endfacet
  facet normal 0 0 1
    outer loop
      vertex -31.5393 -1.10437 1.1
      vertex -38.123 -2.98428 1.1
      vertex -37.6573 -4.41749 1.1
    endloop
  endfacet
  facet normal 0 -0 1
    outer loop
      vertex -38.4054 -1.504 1.1
      vertex -31.7263 -0.375999 1.1
      vertex -38.5 0 1.1
    endloop
  endfacet
  facet normal 0 0 1
    outer loop
      vertex -31.5393 -1.10437 1.1
      vertex -38.4054 -1.504 1.1
      vertex -38.123 -2.98428 1.1
    endloop
  endfacet
  facet normal 0 0 1
    outer loop
      vertex -31.7263 -0.375999 1.1
      vertex -38.4054 -1.504 1.1
      vertex -31.5393 -1.10437 1.1
    endloop
  endfacet
  facet normal 0 0 -1
    outer loop
      vertex 33.75 0 -1.1
      vertex 38.5 0 -1.1
      vertex 38.4054 -1.504 -1.1
    endloop
  endfacet
  facet normal 0 0 -1
    outer loop
      vertex 33.6558 -0.746069 -1.1
      vertex 38.4054 -1.504 -1.1
      vertex 38.123 -2.98428 -1.1
    endloop
  endfacet
  facet normal 0 0 -1
    outer loop
      vertex 38.5 0 -1.1
      vertex 33.75 0 -1.1
      vertex 38.4054 1.504 -1.1
    endloop
  endfacet
  facet normal 0 0 -1
    outer loop
      vertex 33.3789 -1.44526 -1.1
      vertex 38.123 -2.98428 -1.1
      vertex 37.6573 -4.41749 -1.1
    endloop
  endfacet
  facet normal 0 0 -1
    outer loop
      vertex 33.6558 0.746069 -1.1
      vertex 38.4054 1.504 -1.1
      vertex 33.75 0 -1.1
    endloop
  endfacet
  facet normal 0 0 -1
    outer loop
      vertex 32.9369 -2.05364 -1.1
      vertex 37.6573 -4.41749 -1.1
      vertex 37.0157 -5.78104 -1.1
    endloop
  endfacet
  facet normal -0 0 -1
    outer loop
      vertex 38.4054 1.504 -1.1
      vertex 33.6558 0.746069 -1.1
      vertex 38.123 2.98428 -1.1
    endloop
  endfacet
  facet normal 0 0 -1
    outer loop
      vertex 32.3575 -2.53298 -1.1
      vertex 37.0157 -5.78104 -1.1
      vertex 36.2082 -7.05342 -1.1
    endloop
  endfacet
  facet normal 0 0 -1
    outer loop
      vertex 33.3789 1.44526 -1.1
      vertex 38.123 2.98428 -1.1
      vertex 33.6558 0.746069 -1.1
    endloop
  endfacet
  facet normal 0 0 -1
    outer loop
      vertex 32.3575 -2.53298 -1.1
      vertex 36.2082 -7.05342 -1.1
      vertex 35.3424 -8.1 -1.1
    endloop
  endfacet
  facet normal -0 0 -1
    outer loop
      vertex 38.123 2.98428 -1.1
      vertex 33.3789 1.44526 -1.1
      vertex 37.6573 4.41749 -1.1
    endloop
  endfacet
  facet normal 0 0 -1
    outer loop
      vertex 32.9369 2.05364 -1.1
      vertex 37.6573 4.41749 -1.1
      vertex 33.3789 1.44526 -1.1
    endloop
  endfacet
  facet normal 0 0 -1
    outer loop
      vertex 38.4054 -1.504 -1.1
      vertex 33.6558 -0.746069 -1.1
      vertex 33.75 0 -1.1
    endloop
  endfacet
  facet normal 0 0 -1
    outer loop
      vertex 38.123 -2.98428 -1.1
      vertex 33.3789 -1.44526 -1.1
      vertex 33.6558 -0.746069 -1.1
    endloop
  endfacet
  facet normal 0 0 -1
    outer loop
      vertex 37.6573 -4.41749 -1.1
      vertex 32.9369 -2.05364 -1.1
      vertex 33.3789 -1.44526 -1.1
    endloop
  endfacet
  facet normal 0 0 -1
    outer loop
      vertex 37.0157 -5.78104 -1.1
      vertex 32.3575 -2.53298 -1.1
      vertex 32.9369 -2.05364 -1.1
    endloop
  endfacet
  facet normal 0 0 -1
    outer loop
      vertex 35.3424 -8.1 -1.1
      vertex 31.6771 -2.85317 -1.1
      vertex 32.3575 -2.53298 -1.1
    endloop
  endfacet
  facet normal 0 0 -1
    outer loop
      vertex 35.3424 -8.1 -1.1
      vertex 30.9384 -2.99408 -1.1
      vertex 31.6771 -2.85317 -1.1
    endloop
  endfacet
  facet normal 0 0 -1
    outer loop
      vertex 35.3424 -8.1 -1.1
      vertex 30.1879 -2.94686 -1.1
      vertex 30.9384 -2.99408 -1.1
    endloop
  endfacet
  facet normal 0 0 -1
    outer loop
      vertex 35.3424 -8.1 -1.1
      vertex 29.4727 -2.71448 -1.1
      vertex 30.1879 -2.94686 -1.1
    endloop
  endfacet
  facet normal 0 0 -1
    outer loop
      vertex 14.1075 -2.53298 -1.1
      vertex 29.4727 -2.71448 -1.1
      vertex 35.3424 -8.1 -1.1
    endloop
  endfacet
  facet normal 0 0 -1
    outer loop
      vertex 27.7737 -0.375999 -1.1
      vertex 15.5 0 -1.1
      vertex 27.7737 0.375999 -1.1
    endloop
  endfacet
  facet normal 0 0 -1
    outer loop
      vertex 15.4057 -0.746069 -1.1
      vertex 27.7737 -0.375999 -1.1
      vertex 27.9607 -1.10437 -1.1
    endloop
  endfacet
  facet normal 0 0 -1
    outer loop
      vertex 15.1289 -1.44526 -1.1
      vertex 27.9607 -1.10437 -1.1
      vertex 28.3229 -1.76336 -1.1
    endloop
  endfacet
  facet normal 0 0 -1
    outer loop
      vertex 14.6869 -2.05364 -1.1
      vertex 28.3229 -1.76336 -1.1
      vertex 28.8377 -2.31154 -1.1
    endloop
  endfacet
  facet normal 0 0 -1
    outer loop
      vertex 29.4727 -2.71448 -1.1
      vertex 14.1075 -2.53298 -1.1
      vertex 28.8377 -2.31154 -1.1
    endloop
  endfacet
  facet normal -0 0 -1
    outer loop
      vertex 27.7737 -0.375999 -1.1
      vertex 15.4057 -0.746069 -1.1
      vertex 15.5 0 -1.1
    endloop
  endfacet
  facet normal -0 0 -1
    outer loop
      vertex 27.9607 -1.10437 -1.1
      vertex 15.1289 -1.44526 -1.1
      vertex 15.4057 -0.746069 -1.1
    endloop
  endfacet
  facet normal -0 0 -1
    outer loop
      vertex 28.3229 -1.76336 -1.1
      vertex 14.6869 -2.05364 -1.1
      vertex 15.1289 -1.44526 -1.1
    endloop
  endfacet
  facet normal -0 0 -1
    outer loop
      vertex 28.8377 -2.31154 -1.1
      vertex 14.1075 -2.53298 -1.1
      vertex 14.6869 -2.05364 -1.1
    endloop
  endfacet
  facet normal 0 0 -1
    outer loop
      vertex 35.3424 -8.1 -1.1
      vertex 13.4271 -2.85317 -1.1
      vertex 14.1075 -2.53298 -1.1
    endloop
  endfacet
  facet normal 0 0 -1
    outer loop
      vertex 35.3424 -8.1 -1.1
      vertex 12.6884 -2.99408 -1.1
      vertex 13.4271 -2.85317 -1.1
    endloop
  endfacet
  facet normal 0 0 -1
    outer loop
      vertex 35.3424 -8.1 -1.1
      vertex 11.9379 -2.94686 -1.1
      vertex 12.6884 -2.99408 -1.1
    endloop
  endfacet
  facet normal 0 0 -1
    outer loop
      vertex 9.52366 -0.375999 -1.1
      vertex -7.5 0 -1.1
      vertex 9.52366 0.375999 -1.1
    endloop
  endfacet
  facet normal 0 0 -1
    outer loop
      vertex -7.59425 -0.746069 -1.1
      vertex 9.52366 -0.375999 -1.1
      vertex 9.71067 -1.10437 -1.1
    endloop
  endfacet
  facet normal 0 0 -1
    outer loop
      vertex -7.87108 -1.44526 -1.1
      vertex 9.71067 -1.10437 -1.1
      vertex 10.0729 -1.76336 -1.1
    endloop
  endfacet
  facet normal 0 0 -1
    outer loop
      vertex -8.31309 -2.05364 -1.1
      vertex 10.0729 -1.76336 -1.1
      vertex 10.5877 -2.31154 -1.1
    endloop
  endfacet
  facet normal 0 0 -1
    outer loop
      vertex -8.89252 -2.53298 -1.1
      vertex 10.5877 -2.31154 -1.1
      vertex 11.2227 -2.71448 -1.1
    endloop
  endfacet
  facet normal 0 0 -1
    outer loop
      vertex -9.57295 -2.85317 -1.1
      vertex 11.2227 -2.71448 -1.1
      vertex 11.9379 -2.94686 -1.1
    endloop
  endfacet
  facet normal 0 0 -1
    outer loop
      vertex -10.3116 -2.99408 -1.1
      vertex 11.9379 -2.94686 -1.1
      vertex 35.3424 -8.1 -1.1
    endloop
  endfacet
  facet normal -0 0 -1
    outer loop
      vertex 9.52366 -0.375999 -1.1
      vertex -7.59425 -0.746069 -1.1
      vertex -7.5 0 -1.1
    endloop
  endfacet
  facet normal -0 0 -1
    outer loop
      vertex 9.71067 -1.10437 -1.1
      vertex -7.87108 -1.44526 -1.1
      vertex -7.59425 -0.746069 -1.1
    endloop
  endfacet
  facet normal -0 0 -1
    outer loop
      vertex 10.0729 -1.76336 -1.1
      vertex -8.31309 -2.05364 -1.1
      vertex -7.87108 -1.44526 -1.1
    endloop
  endfacet
  facet normal -0 0 -1
    outer loop
      vertex 10.5877 -2.31154 -1.1
      vertex -8.89252 -2.53298 -1.1
      vertex -8.31309 -2.05364 -1.1
    endloop
  endfacet
  facet normal -0 0 -1
    outer loop
      vertex 11.2227 -2.71448 -1.1
      vertex -9.57295 -2.85317 -1.1
      vertex -8.89252 -2.53298 -1.1
    endloop
  endfacet
  facet normal -0 0 -1
    outer loop
      vertex 11.9379 -2.94686 -1.1
      vertex -10.3116 -2.99408 -1.1
      vertex -9.57295 -2.85317 -1.1
    endloop
  endfacet
  facet normal 0 0 -1
    outer loop
      vertex -35.3424 -8.1 -1.1
      vertex -10.3116 -2.99408 -1.1
      vertex 35.3424 -8.1 -1.1
    endloop
  endfacet
  facet normal 0 0 -1
    outer loop
      vertex -13.4763 -0.375999 -1.1
      vertex -25.75 0 -1.1
      vertex -13.4763 0.375999 -1.1
    endloop
  endfacet
  facet normal 0 0 -1
    outer loop
      vertex -25.8442 -0.746069 -1.1
      vertex -13.4763 -0.375999 -1.1
      vertex -13.2893 -1.10437 -1.1
    endloop
  endfacet
  facet normal 0 0 -1
    outer loop
      vertex -26.1211 -1.44526 -1.1
      vertex -13.2893 -1.10437 -1.1
      vertex -12.9271 -1.76336 -1.1
    endloop
  endfacet
  facet normal 0 0 -1
    outer loop
      vertex -26.5631 -2.05364 -1.1
      vertex -12.9271 -1.76336 -1.1
      vertex -12.4123 -2.31154 -1.1
    endloop
  endfacet
  facet normal 0 0 -1
    outer loop
      vertex -27.1425 -2.53298 -1.1
      vertex -12.4123 -2.31154 -1.1
      vertex -11.7773 -2.71448 -1.1
    endloop
  endfacet
  facet normal 0 0 -1
    outer loop
      vertex -35.3424 -8.1 -1.1
      vertex -11.7773 -2.71448 -1.1
      vertex -11.0621 -2.94686 -1.1
    endloop
  endfacet
  facet normal -0 0 -1
    outer loop
      vertex -13.4763 -0.375999 -1.1
      vertex -25.8442 -0.746069 -1.1
      vertex -25.75 0 -1.1
    endloop
  endfacet
  facet normal -0 0 -1
    outer loop
      vertex -13.2893 -1.10437 -1.1
      vertex -26.1211 -1.44526 -1.1
      vertex -25.8442 -0.746069 -1.1
    endloop
  endfacet
  facet normal -0 0 -1
    outer loop
      vertex -10.3116 -2.99408 -1.1
      vertex -35.3424 -8.1 -1.1
      vertex -11.0621 -2.94686 -1.1
    endloop
  endfacet
  facet normal -0 0 -1
    outer loop
      vertex -12.9271 -1.76336 -1.1
      vertex -26.5631 -2.05364 -1.1
      vertex -26.1211 -1.44526 -1.1
    endloop
  endfacet
  facet normal -0 0 -1
    outer loop
      vertex -12.4123 -2.31154 -1.1
      vertex -27.1425 -2.53298 -1.1
      vertex -26.5631 -2.05364 -1.1
    endloop
  endfacet
  facet normal 0 0 -1
    outer loop
      vertex -11.7773 -2.71448 -1.1
      vertex -35.3424 -8.1 -1.1
      vertex -27.8229 -2.85317 -1.1
    endloop
  endfacet
  facet normal -0 0 -1
    outer loop
      vertex -11.7773 -2.71448 -1.1
      vertex -27.8229 -2.85317 -1.1
      vertex -27.1425 -2.53298 -1.1
    endloop
  endfacet
  facet normal 0 0 -1
    outer loop
      vertex -27.8229 -2.85317 -1.1
      vertex -35.3424 -8.1 -1.1
      vertex -28.5616 -2.99408 -1.1
    endloop
  endfacet
  facet normal 0 0 -1
    outer loop
      vertex -37.6573 -4.41749 -1.1
      vertex -31.1771 -1.76336 -1.1
      vertex -37.0157 -5.78104 -1.1
    endloop
  endfacet
  facet normal 0 0 -1
    outer loop
      vertex -37.0157 -5.78104 -1.1
      vertex -31.1771 -1.76336 -1.1
      vertex -36.2082 -7.05342 -1.1
    endloop
  endfacet
  facet normal -0 0 -1
    outer loop
      vertex -30.6623 -2.31154 -1.1
      vertex -36.2082 -7.05342 -1.1
      vertex -31.1771 -1.76336 -1.1
    endloop
  endfacet
  facet normal 0 0 -1
    outer loop
      vertex -36.2082 -7.05342 -1.1
      vertex -30.6623 -2.31154 -1.1
      vertex -35.3424 -8.1 -1.1
    endloop
  endfacet
  facet normal -0 0 -1
    outer loop
      vertex -30.0273 -2.71448 -1.1
      vertex -35.3424 -8.1 -1.1
      vertex -30.6623 -2.31154 -1.1
    endloop
  endfacet
  facet normal -0 0 -1
    outer loop
      vertex -29.3121 -2.94686 -1.1
      vertex -35.3424 -8.1 -1.1
      vertex -30.0273 -2.71448 -1.1
    endloop
  endfacet
  facet normal -0 0 -1
    outer loop
      vertex -28.5616 -2.99408 -1.1
      vertex -35.3424 -8.1 -1.1
      vertex -29.3121 -2.94686 -1.1
    endloop
  endfacet
  facet normal -0 0 -1
    outer loop
      vertex 37.6573 4.41749 -1.1
      vertex 32.9369 2.05364 -1.1
      vertex 37.0157 5.78104 -1.1
    endloop
  endfacet
  facet normal 0 0 -1
    outer loop
      vertex 32.3575 2.53298 -1.1
      vertex 37.0157 5.78104 -1.1
      vertex 32.9369 2.05364 -1.1
    endloop
  endfacet
  facet normal -0 0 -1
    outer loop
      vertex 37.0157 5.78104 -1.1
      vertex 32.3575 2.53298 -1.1
      vertex 36.2082 7.05342 -1.1
    endloop
  endfacet
  facet normal -0 0 -1
    outer loop
      vertex 36.2082 7.05342 -1.1
      vertex 32.3575 2.53298 -1.1
      vertex 35.3424 8.1 -1.1
    endloop
  endfacet
  facet normal 0 0 -1
    outer loop
      vertex 31.6771 2.85317 -1.1
      vertex 35.3424 8.1 -1.1
      vertex 32.3575 2.53298 -1.1
    endloop
  endfacet
  facet normal 0 0 -1
    outer loop
      vertex 30.9384 2.99408 -1.1
      vertex 35.3424 8.1 -1.1
      vertex 31.6771 2.85317 -1.1
    endloop
  endfacet
  facet normal 0 0 -1
    outer loop
      vertex 30.1879 2.94686 -1.1
      vertex 35.3424 8.1 -1.1
      vertex 30.9384 2.99408 -1.1
    endloop
  endfacet
  facet normal 0 0 -1
    outer loop
      vertex 29.4727 2.71448 -1.1
      vertex 35.3424 8.1 -1.1
      vertex 30.1879 2.94686 -1.1
    endloop
  endfacet
  facet normal 0 0 -1
    outer loop
      vertex 14.1075 2.53298 -1.1
      vertex 29.4727 2.71448 -1.1
      vertex 28.8377 2.31154 -1.1
    endloop
  endfacet
  facet normal 0 0 -1
    outer loop
      vertex 15.4057 0.746069 -1.1
      vertex 27.7737 0.375999 -1.1
      vertex 15.5 0 -1.1
    endloop
  endfacet
  facet normal 0 0 -1
    outer loop
      vertex 27.7737 0.375999 -1.1
      vertex 15.4057 0.746069 -1.1
      vertex 27.9607 1.10437 -1.1
    endloop
  endfacet
  facet normal 0 0 -1
    outer loop
      vertex 15.1289 1.44526 -1.1
      vertex 27.9607 1.10437 -1.1
      vertex 15.4057 0.746069 -1.1
    endloop
  endfacet
  facet normal 0 0 -1
    outer loop
      vertex 27.9607 1.10437 -1.1
      vertex 15.1289 1.44526 -1.1
      vertex 28.3229 1.76336 -1.1
    endloop
  endfacet
  facet normal 0 0 -1
    outer loop
      vertex 14.6869 2.05364 -1.1
      vertex 28.3229 1.76336 -1.1
      vertex 15.1289 1.44526 -1.1
    endloop
  endfacet
  facet normal 0 0 -1
    outer loop
      vertex 28.3229 1.76336 -1.1
      vertex 14.6869 2.05364 -1.1
      vertex 28.8377 2.31154 -1.1
    endloop
  endfacet
  facet normal 0 0 -1
    outer loop
      vertex 14.1075 2.53298 -1.1
      vertex 28.8377 2.31154 -1.1
      vertex 14.6869 2.05364 -1.1
    endloop
  endfacet
  facet normal -0 0 -1
    outer loop
      vertex 29.4727 2.71448 -1.1
      vertex 14.1075 2.53298 -1.1
      vertex 35.3424 8.1 -1.1
    endloop
  endfacet
  facet normal 0 0 -1
    outer loop
      vertex 13.4271 2.85317 -1.1
      vertex 35.3424 8.1 -1.1
      vertex 14.1075 2.53298 -1.1
    endloop
  endfacet
  facet normal 0 0 -1
    outer loop
      vertex 12.6884 2.99408 -1.1
      vertex 35.3424 8.1 -1.1
      vertex 13.4271 2.85317 -1.1
    endloop
  endfacet
  facet normal 0 0 -1
    outer loop
      vertex 11.9379 2.94686 -1.1
      vertex 35.3424 8.1 -1.1
      vertex 12.6884 2.99408 -1.1
    endloop
  endfacet
  facet normal 0 0 -1
    outer loop
      vertex -7.59425 0.746069 -1.1
      vertex 9.52366 0.375999 -1.1
      vertex -7.5 0 -1.1
    endloop
  endfacet
  facet normal 0 0 -1
    outer loop
      vertex 9.52366 0.375999 -1.1
      vertex -7.59425 0.746069 -1.1
      vertex 9.71067 1.10437 -1.1
    endloop
  endfacet
  facet normal 0 0 -1
    outer loop
      vertex -7.87108 1.44526 -1.1
      vertex 9.71067 1.10437 -1.1
      vertex -7.59425 0.746069 -1.1
    endloop
  endfacet
  facet normal 0 0 -1
    outer loop
      vertex 9.71067 1.10437 -1.1
      vertex -7.87108 1.44526 -1.1
      vertex 10.0729 1.76336 -1.1
    endloop
  endfacet
  facet normal 0 0 -1
    outer loop
      vertex -8.31309 2.05364 -1.1
      vertex 10.0729 1.76336 -1.1
      vertex -7.87108 1.44526 -1.1
    endloop
  endfacet
  facet normal 0 0 -1
    outer loop
      vertex 10.0729 1.76336 -1.1
      vertex -8.31309 2.05364 -1.1
      vertex 10.5877 2.31154 -1.1
    endloop
  endfacet
  facet normal 0 0 -1
    outer loop
      vertex -8.89252 2.53298 -1.1
      vertex 10.5877 2.31154 -1.1
      vertex -8.31309 2.05364 -1.1
    endloop
  endfacet
  facet normal 0 0 -1
    outer loop
      vertex 10.5877 2.31154 -1.1
      vertex -8.89252 2.53298 -1.1
      vertex 11.2227 2.71448 -1.1
    endloop
  endfacet
  facet normal 0 0 -1
    outer loop
      vertex -9.57295 2.85317 -1.1
      vertex 11.2227 2.71448 -1.1
      vertex -8.89252 2.53298 -1.1
    endloop
  endfacet
  facet normal 0 0 -1
    outer loop
      vertex 11.2227 2.71448 -1.1
      vertex -9.57295 2.85317 -1.1
      vertex 11.9379 2.94686 -1.1
    endloop
  endfacet
  facet normal 0 0 -1
    outer loop
      vertex -10.3116 2.99408 -1.1
      vertex 11.9379 2.94686 -1.1
      vertex -9.57295 2.85317 -1.1
    endloop
  endfacet
  facet normal 0 0 -1
    outer loop
      vertex 11.9379 2.94686 -1.1
      vertex -10.3116 2.99408 -1.1
      vertex 35.3424 8.1 -1.1
    endloop
  endfacet
  facet normal 0 0 -1
    outer loop
      vertex -35.3424 8.1 -1.1
      vertex -10.3116 2.99408 -1.1
      vertex -11.0621 2.94686 -1.1
    endloop
  endfacet
  facet normal 0 0 -1
    outer loop
      vertex -25.8442 0.746069 -1.1
      vertex -13.4763 0.375999 -1.1
      vertex -25.75 0 -1.1
    endloop
  endfacet
  facet normal 0 0 -1
    outer loop
      vertex -13.4763 0.375999 -1.1
      vertex -25.8442 0.746069 -1.1
      vertex -13.2893 1.10437 -1.1
    endloop
  endfacet
  facet normal 0 0 -1
    outer loop
      vertex -26.1211 1.44526 -1.1
      vertex -13.2893 1.10437 -1.1
      vertex -25.8442 0.746069 -1.1
    endloop
  endfacet
  facet normal 0 0 -1
    outer loop
      vertex -13.2893 1.10437 -1.1
      vertex -26.1211 1.44526 -1.1
      vertex -12.9271 1.76336 -1.1
    endloop
  endfacet
  facet normal 0 0 -1
    outer loop
      vertex -26.5631 2.05364 -1.1
      vertex -12.9271 1.76336 -1.1
      vertex -26.1211 1.44526 -1.1
    endloop
  endfacet
  facet normal 0 0 -1
    outer loop
      vertex -12.9271 1.76336 -1.1
      vertex -26.5631 2.05364 -1.1
      vertex -12.4123 2.31154 -1.1
    endloop
  endfacet
  facet normal 0 0 -1
    outer loop
      vertex -27.1425 2.53298 -1.1
      vertex -12.4123 2.31154 -1.1
      vertex -26.5631 2.05364 -1.1
    endloop
  endfacet
  facet normal 0 0 -1
    outer loop
      vertex -12.4123 2.31154 -1.1
      vertex -27.1425 2.53298 -1.1
      vertex -11.7773 2.71448 -1.1
    endloop
  endfacet
  facet normal 0 0 -1
    outer loop
      vertex -27.8229 2.85317 -1.1
      vertex -11.7773 2.71448 -1.1
      vertex -27.1425 2.53298 -1.1
    endloop
  endfacet
  facet normal 0 0 -1
    outer loop
      vertex -35.3424 8.1 -1.1
      vertex -11.7773 2.71448 -1.1
      vertex -27.8229 2.85317 -1.1
    endloop
  endfacet
  facet normal 0 0 -1
    outer loop
      vertex -11.7773 2.71448 -1.1
      vertex -35.3424 8.1 -1.1
      vertex -11.0621 2.94686 -1.1
    endloop
  endfacet
  facet normal 0 0 -1
    outer loop
      vertex -35.3424 8.1 -1.1
      vertex -27.8229 2.85317 -1.1
      vertex -28.5616 2.99408 -1.1
    endloop
  endfacet
  facet normal 0 0 -1
    outer loop
      vertex -35.3424 8.1 -1.1
      vertex -28.5616 2.99408 -1.1
      vertex -29.3121 2.94686 -1.1
    endloop
  endfacet
  facet normal -0 0 -1
    outer loop
      vertex -31.1771 -1.76336 -1.1
      vertex -37.6573 -4.41749 -1.1
      vertex -31.5393 -1.10437 -1.1
    endloop
  endfacet
  facet normal 0 0 -1
    outer loop
      vertex -10.3116 2.99408 -1.1
      vertex -35.3424 8.1 -1.1
      vertex 35.3424 8.1 -1.1
    endloop
  endfacet
  facet normal 0 0 -1
    outer loop
      vertex -30.0273 2.71448 -1.1
      vertex -35.3424 8.1 -1.1
      vertex -29.3121 2.94686 -1.1
    endloop
  endfacet
  facet normal 0 0 -1
    outer loop
      vertex -30.6623 2.31154 -1.1
      vertex -35.3424 8.1 -1.1
      vertex -30.0273 2.71448 -1.1
    endloop
  endfacet
  facet normal 0 0 -1
    outer loop
      vertex -36.2082 7.05342 -1.1
      vertex -30.6623 2.31154 -1.1
      vertex -31.1771 1.76336 -1.1
    endloop
  endfacet
  facet normal 0 0 -1
    outer loop
      vertex -37.6573 4.41749 -1.1
      vertex -31.1771 1.76336 -1.1
      vertex -31.5393 1.10437 -1.1
    endloop
  endfacet
  facet normal 0 0 -1
    outer loop
      vertex -38.123 -2.98428 -1.1
      vertex -31.5393 -1.10437 -1.1
      vertex -37.6573 -4.41749 -1.1
    endloop
  endfacet
  facet normal -0 0 -1
    outer loop
      vertex -31.5393 -1.10437 -1.1
      vertex -38.123 -2.98428 -1.1
      vertex -31.7263 -0.375999 -1.1
    endloop
  endfacet
  facet normal 0 0 -1
    outer loop
      vertex -30.6623 2.31154 -1.1
      vertex -36.2082 7.05342 -1.1
      vertex -35.3424 8.1 -1.1
    endloop
  endfacet
  facet normal 0 0 -1
    outer loop
      vertex -38.4054 -1.504 -1.1
      vertex -31.7263 -0.375999 -1.1
      vertex -38.123 -2.98428 -1.1
    endloop
  endfacet
  facet normal 0 0 -1
    outer loop
      vertex -31.1771 1.76336 -1.1
      vertex -37.0157 5.78104 -1.1
      vertex -36.2082 7.05342 -1.1
    endloop
  endfacet
  facet normal 0 0 -1
    outer loop
      vertex -38.5 0 -1.1
      vertex -31.7263 -0.375999 -1.1
      vertex -38.4054 -1.504 -1.1
    endloop
  endfacet
  facet normal 0 0 -1
    outer loop
      vertex -31.1771 1.76336 -1.1
      vertex -37.6573 4.41749 -1.1
      vertex -37.0157 5.78104 -1.1
    endloop
  endfacet
  facet normal 0 0 -1
    outer loop
      vertex -31.7263 -0.375999 -1.1
      vertex -38.5 0 -1.1
      vertex -31.7263 0.375999 -1.1
    endloop
  endfacet
  facet normal 0 0 -1
    outer loop
      vertex -31.5393 1.10437 -1.1
      vertex -38.123 2.98428 -1.1
      vertex -37.6573 4.41749 -1.1
    endloop
  endfacet
  facet normal 0 -0 -1
    outer loop
      vertex -38.4054 1.504 -1.1
      vertex -31.7263 0.375999 -1.1
      vertex -38.5 0 -1.1
    endloop
  endfacet
  facet normal 0 0 -1
    outer loop
      vertex -31.5393 1.10437 -1.1
      vertex -38.4054 1.504 -1.1
      vertex -38.123 2.98428 -1.1
    endloop
  endfacet
  facet normal 0 0 -1
    outer loop
      vertex -31.7263 0.375999 -1.1
      vertex -38.4054 1.504 -1.1
      vertex -31.5393 1.10437 -1.1
    endloop
  endfacet
  facet normal 0 -1 0
    outer loop
      vertex -35.3424 -8.1 -1.1
      vertex 35.3424 -8.1 1.1
      vertex -35.3424 -8.1 1.1
    endloop
  endfacet
  facet normal 0 -1 -0
    outer loop
      vertex 35.3424 -8.1 1.1
      vertex -35.3424 -8.1 -1.1
      vertex 35.3424 -8.1 -1.1
    endloop
  endfacet
  facet normal 0 1 -0
    outer loop
      vertex 35.3424 8.1 -1.1
      vertex -35.3424 8.1 1.1
      vertex 35.3424 8.1 1.1
    endloop
  endfacet
  facet normal 0 1 0
    outer loop
      vertex -35.3424 8.1 1.1
      vertex 35.3424 8.1 -1.1
      vertex -35.3424 8.1 -1.1
    endloop
  endfacet
  facet normal -0.992115 -0.125334 0
    outer loop
      vertex 15.5 0 -1.1
      vertex 15.4057 0.746069 1.1
      vertex 15.4057 0.746069 -1.1
    endloop
  endfacet
  facet normal -0.992115 -0.125334 0
    outer loop
      vertex 15.4057 0.746069 1.1
      vertex 15.5 0 -1.1
      vertex 15.5 0 1.1
    endloop
  endfacet
  facet normal 1 -0 0
    outer loop
      vertex 9.52366 -0.375999 1.1
      vertex 9.52366 0.375999 -1.1
      vertex 9.52366 0.375999 1.1
    endloop
  endfacet
  facet normal 1 0 0
    outer loop
      vertex 9.52366 0.375999 -1.1
      vertex 9.52366 -0.375999 1.1
      vertex 9.52366 -0.375999 -1.1
    endloop
  endfacet
  facet normal 0.0627904 -0.998027 0
    outer loop
      vertex 11.9379 2.94686 -1.1
      vertex 12.6884 2.99408 1.1
      vertex 11.9379 2.94686 1.1
    endloop
  endfacet
  facet normal 0.0627904 -0.998027 0
    outer loop
      vertex 12.6884 2.99408 1.1
      vertex 11.9379 2.94686 -1.1
      vertex 12.6884 2.99408 -1.1
    endloop
  endfacet
  facet normal -0.187381 0.982287 0
    outer loop
      vertex 13.4271 -2.85317 -1.1
      vertex 12.6884 -2.99408 1.1
      vertex 13.4271 -2.85317 1.1
    endloop
  endfacet
  facet normal -0.187381 0.982287 0
    outer loop
      vertex 12.6884 -2.99408 1.1
      vertex 13.4271 -2.85317 -1.1
      vertex 12.6884 -2.99408 -1.1
    endloop
  endfacet
  facet normal -0.637424 -0.770513 0
    outer loop
      vertex 14.1075 2.53298 -1.1
      vertex 14.6869 2.05364 1.1
      vertex 14.1075 2.53298 1.1
    endloop
  endfacet
  facet normal -0.637424 -0.770513 -0
    outer loop
      vertex 14.6869 2.05364 1.1
      vertex 14.1075 2.53298 -1.1
      vertex 14.6869 2.05364 -1.1
    endloop
  endfacet
  facet normal -0.929776 -0.368125 0
    outer loop
      vertex 15.4057 0.746069 -1.1
      vertex 15.1289 1.44526 1.1
      vertex 15.1289 1.44526 -1.1
    endloop
  endfacet
  facet normal -0.929776 -0.368125 0
    outer loop
      vertex 15.1289 1.44526 1.1
      vertex 15.4057 0.746069 -1.1
      vertex 15.4057 0.746069 1.1
    endloop
  endfacet
  facet normal -0.42578 -0.904827 0
    outer loop
      vertex 13.4271 2.85317 -1.1
      vertex 14.1075 2.53298 1.1
      vertex 13.4271 2.85317 1.1
    endloop
  endfacet
  facet normal -0.42578 -0.904827 -0
    outer loop
      vertex 14.1075 2.53298 1.1
      vertex 13.4271 2.85317 -1.1
      vertex 14.1075 2.53298 -1.1
    endloop
  endfacet
  facet normal 0.728969 -0.684547 0
    outer loop
      vertex 10.0729 1.76336 1.1
      vertex 10.5877 2.31154 -1.1
      vertex 10.5877 2.31154 1.1
    endloop
  endfacet
  facet normal 0.728969 -0.684547 0
    outer loop
      vertex 10.5877 2.31154 -1.1
      vertex 10.0729 1.76336 1.1
      vertex 10.0729 1.76336 -1.1
    endloop
  endfacet
  facet normal 0.535826 -0.844328 0
    outer loop
      vertex 10.5877 2.31154 -1.1
      vertex 11.2227 2.71448 1.1
      vertex 10.5877 2.31154 1.1
    endloop
  endfacet
  facet normal 0.535826 -0.844328 0
    outer loop
      vertex 11.2227 2.71448 1.1
      vertex 10.5877 2.31154 -1.1
      vertex 11.2227 2.71448 -1.1
    endloop
  endfacet
  facet normal -0.809017 -0.587785 0
    outer loop
      vertex 15.1289 1.44526 -1.1
      vertex 14.6869 2.05364 1.1
      vertex 14.6869 2.05364 -1.1
    endloop
  endfacet
  facet normal -0.809017 -0.587785 0
    outer loop
      vertex 14.6869 2.05364 1.1
      vertex 15.1289 1.44526 -1.1
      vertex 15.1289 1.44526 1.1
    endloop
  endfacet
  facet normal -0.187381 -0.982287 0
    outer loop
      vertex 12.6884 2.99408 -1.1
      vertex 13.4271 2.85317 1.1
      vertex 12.6884 2.99408 1.1
    endloop
  endfacet
  facet normal -0.187381 -0.982287 -0
    outer loop
      vertex 13.4271 2.85317 1.1
      vertex 12.6884 2.99408 -1.1
      vertex 13.4271 2.85317 -1.1
    endloop
  endfacet
  facet normal 0.876307 -0.481753 0
    outer loop
      vertex 9.71067 1.10437 1.1
      vertex 10.0729 1.76336 -1.1
      vertex 10.0729 1.76336 1.1
    endloop
  endfacet
  facet normal 0.876307 -0.481753 0
    outer loop
      vertex 10.0729 1.76336 -1.1
      vertex 9.71067 1.10437 1.1
      vertex 9.71067 1.10437 -1.1
    endloop
  endfacet
  facet normal 0.968583 -0.24869 0
    outer loop
      vertex 9.52366 0.375999 1.1
      vertex 9.71067 1.10437 -1.1
      vertex 9.71067 1.10437 1.1
    endloop
  endfacet
  facet normal 0.968583 -0.24869 0
    outer loop
      vertex 9.71067 1.10437 -1.1
      vertex 9.52366 0.375999 1.1
      vertex 9.52366 0.375999 -1.1
    endloop
  endfacet
  facet normal 0.309017 -0.951056 0
    outer loop
      vertex 11.2227 2.71448 -1.1
      vertex 11.9379 2.94686 1.1
      vertex 11.2227 2.71448 1.1
    endloop
  endfacet
  facet normal 0.309017 -0.951056 0
    outer loop
      vertex 11.9379 2.94686 1.1
      vertex 11.2227 2.71448 -1.1
      vertex 11.9379 2.94686 -1.1
    endloop
  endfacet
  facet normal -0.809017 0.587785 0
    outer loop
      vertex 14.6869 -2.05364 -1.1
      vertex 15.1289 -1.44526 1.1
      vertex 15.1289 -1.44526 -1.1
    endloop
  endfacet
  facet normal -0.809017 0.587785 0
    outer loop
      vertex 15.1289 -1.44526 1.1
      vertex 14.6869 -2.05364 -1.1
      vertex 14.6869 -2.05364 1.1
    endloop
  endfacet
  facet normal -0.929776 0.368125 0
    outer loop
      vertex 15.1289 -1.44526 -1.1
      vertex 15.4057 -0.746069 1.1
      vertex 15.4057 -0.746069 -1.1
    endloop
  endfacet
  facet normal -0.929776 0.368125 0
    outer loop
      vertex 15.4057 -0.746069 1.1
      vertex 15.1289 -1.44526 -1.1
      vertex 15.1289 -1.44526 1.1
    endloop
  endfacet
  facet normal 0.728969 0.684547 0
    outer loop
      vertex 10.5877 -2.31154 1.1
      vertex 10.0729 -1.76336 -1.1
      vertex 10.0729 -1.76336 1.1
    endloop
  endfacet
  facet normal 0.728969 0.684547 0
    outer loop
      vertex 10.0729 -1.76336 -1.1
      vertex 10.5877 -2.31154 1.1
      vertex 10.5877 -2.31154 -1.1
    endloop
  endfacet
  facet normal -0.42578 0.904827 0
    outer loop
      vertex 14.1075 -2.53298 -1.1
      vertex 13.4271 -2.85317 1.1
      vertex 14.1075 -2.53298 1.1
    endloop
  endfacet
  facet normal -0.42578 0.904827 0
    outer loop
      vertex 13.4271 -2.85317 1.1
      vertex 14.1075 -2.53298 -1.1
      vertex 13.4271 -2.85317 -1.1
    endloop
  endfacet
  facet normal -0.992115 0.125334 0
    outer loop
      vertex 15.4057 -0.746069 -1.1
      vertex 15.5 0 1.1
      vertex 15.5 0 -1.1
    endloop
  endfacet
  facet normal -0.992115 0.125334 0
    outer loop
      vertex 15.5 0 1.1
      vertex 15.4057 -0.746069 -1.1
      vertex 15.4057 -0.746069 1.1
    endloop
  endfacet
  facet normal 0.535826 0.844328 -0
    outer loop
      vertex 11.2227 -2.71448 -1.1
      vertex 10.5877 -2.31154 1.1
      vertex 11.2227 -2.71448 1.1
    endloop
  endfacet
  facet normal 0.535826 0.844328 0
    outer loop
      vertex 10.5877 -2.31154 1.1
      vertex 11.2227 -2.71448 -1.1
      vertex 10.5877 -2.31154 -1.1
    endloop
  endfacet
  facet normal 0.0627904 0.998027 -0
    outer loop
      vertex 12.6884 -2.99408 -1.1
      vertex 11.9379 -2.94686 1.1
      vertex 12.6884 -2.99408 1.1
    endloop
  endfacet
  facet normal 0.0627904 0.998027 0
    outer loop
      vertex 11.9379 -2.94686 1.1
      vertex 12.6884 -2.99408 -1.1
      vertex 11.9379 -2.94686 -1.1
    endloop
  endfacet
  facet normal 0.876307 0.481753 0
    outer loop
      vertex 10.0729 -1.76336 1.1
      vertex 9.71067 -1.10437 -1.1
      vertex 9.71067 -1.10437 1.1
    endloop
  endfacet
  facet normal 0.876307 0.481753 0
    outer loop
      vertex 9.71067 -1.10437 -1.1
      vertex 10.0729 -1.76336 1.1
      vertex 10.0729 -1.76336 -1.1
    endloop
  endfacet
  facet normal 0.968583 0.24869 0
    outer loop
      vertex 9.71067 -1.10437 1.1
      vertex 9.52366 -0.375999 -1.1
      vertex 9.52366 -0.375999 1.1
    endloop
  endfacet
  facet normal 0.968583 0.24869 0
    outer loop
      vertex 9.52366 -0.375999 -1.1
      vertex 9.71067 -1.10437 1.1
      vertex 9.71067 -1.10437 -1.1
    endloop
  endfacet
  facet normal -0.637424 0.770513 0
    outer loop
      vertex 14.6869 -2.05364 -1.1
      vertex 14.1075 -2.53298 1.1
      vertex 14.6869 -2.05364 1.1
    endloop
  endfacet
  facet normal -0.637424 0.770513 0
    outer loop
      vertex 14.1075 -2.53298 1.1
      vertex 14.6869 -2.05364 -1.1
      vertex 14.1075 -2.53298 -1.1
    endloop
  endfacet
  facet normal 0.309017 0.951056 -0
    outer loop
      vertex 11.9379 -2.94686 -1.1
      vertex 11.2227 -2.71448 1.1
      vertex 11.9379 -2.94686 1.1
    endloop
  endfacet
  facet normal 0.309017 0.951056 0
    outer loop
      vertex 11.2227 -2.71448 1.1
      vertex 11.9379 -2.94686 -1.1
      vertex 11.2227 -2.71448 -1.1
    endloop
  endfacet
  facet normal -0.992115 -0.125332 0
    outer loop
      vertex 33.75 0 -1.1
      vertex 33.6558 0.746069 1.1
      vertex 33.6558 0.746069 -1.1
    endloop
  endfacet
  facet normal -0.992115 -0.125332 0
    outer loop
      vertex 33.6558 0.746069 1.1
      vertex 33.75 0 -1.1
      vertex 33.75 0 1.1
    endloop
  endfacet
  facet normal 1 -0 0
    outer loop
      vertex 27.7737 -0.375999 1.1
      vertex 27.7737 0.375999 -1.1
      vertex 27.7737 0.375999 1.1
    endloop
  endfacet
  facet normal 1 0 0
    outer loop
      vertex 27.7737 0.375999 -1.1
      vertex 27.7737 -0.375999 1.1
      vertex 27.7737 -0.375999 -1.1
    endloop
  endfacet
  facet normal 0.0627904 -0.998027 0
    outer loop
      vertex 30.1879 2.94686 -1.1
      vertex 30.9384 2.99408 1.1
      vertex 30.1879 2.94686 1.1
    endloop
  endfacet
  facet normal 0.0627904 -0.998027 0
    outer loop
      vertex 30.9384 2.99408 1.1
      vertex 30.1879 2.94686 -1.1
      vertex 30.9384 2.99408 -1.1
    endloop
  endfacet
  facet normal -0.18738 0.982287 0
    outer loop
      vertex 31.6771 -2.85317 -1.1
      vertex 30.9384 -2.99408 1.1
      vertex 31.6771 -2.85317 1.1
    endloop
  endfacet
  facet normal -0.18738 0.982287 0
    outer loop
      vertex 30.9384 -2.99408 1.1
      vertex 31.6771 -2.85317 -1.1
      vertex 30.9384 -2.99408 -1.1
    endloop
  endfacet
  facet normal -0.637424 -0.770513 0
    outer loop
      vertex 32.3575 2.53298 -1.1
      vertex 32.9369 2.05364 1.1
      vertex 32.3575 2.53298 1.1
    endloop
  endfacet
  facet normal -0.637424 -0.770513 -0
    outer loop
      vertex 32.9369 2.05364 1.1
      vertex 32.3575 2.53298 -1.1
      vertex 32.9369 2.05364 -1.1
    endloop
  endfacet
  facet normal -0.929777 -0.368123 0
    outer loop
      vertex 33.6558 0.746069 -1.1
      vertex 33.3789 1.44526 1.1
      vertex 33.3789 1.44526 -1.1
    endloop
  endfacet
  facet normal -0.929777 -0.368123 0
    outer loop
      vertex 33.3789 1.44526 1.1
      vertex 33.6558 0.746069 -1.1
      vertex 33.6558 0.746069 1.1
    endloop
  endfacet
  facet normal -0.425781 -0.904826 0
    outer loop
      vertex 31.6771 2.85317 -1.1
      vertex 32.3575 2.53298 1.1
      vertex 31.6771 2.85317 1.1
    endloop
  endfacet
  facet normal -0.425781 -0.904826 -0
    outer loop
      vertex 32.3575 2.53298 1.1
      vertex 31.6771 2.85317 -1.1
      vertex 32.3575 2.53298 -1.1
    endloop
  endfacet
  facet normal 0.728969 -0.684546 0
    outer loop
      vertex 28.3229 1.76336 1.1
      vertex 28.8377 2.31154 -1.1
      vertex 28.8377 2.31154 1.1
    endloop
  endfacet
  facet normal 0.728969 -0.684546 0
    outer loop
      vertex 28.8377 2.31154 -1.1
      vertex 28.3229 1.76336 1.1
      vertex 28.3229 1.76336 -1.1
    endloop
  endfacet
  facet normal 0.535825 -0.844329 0
    outer loop
      vertex 28.8377 2.31154 -1.1
      vertex 29.4727 2.71448 1.1
      vertex 28.8377 2.31154 1.1
    endloop
  endfacet
  facet normal 0.535825 -0.844329 0
    outer loop
      vertex 29.4727 2.71448 1.1
      vertex 28.8377 2.31154 -1.1
      vertex 29.4727 2.71448 -1.1
    endloop
  endfacet
  facet normal -0.809015 -0.587788 0
    outer loop
      vertex 33.3789 1.44526 -1.1
      vertex 32.9369 2.05364 1.1
      vertex 32.9369 2.05364 -1.1
    endloop
  endfacet
  facet normal -0.809015 -0.587788 0
    outer loop
      vertex 32.9369 2.05364 1.1
      vertex 33.3789 1.44526 -1.1
      vertex 33.3789 1.44526 1.1
    endloop
  endfacet
  facet normal -0.18738 -0.982287 0
    outer loop
      vertex 30.9384 2.99408 -1.1
      vertex 31.6771 2.85317 1.1
      vertex 30.9384 2.99408 1.1
    endloop
  endfacet
  facet normal -0.18738 -0.982287 -0
    outer loop
      vertex 31.6771 2.85317 1.1
      vertex 30.9384 2.99408 -1.1
      vertex 31.6771 2.85317 -1.1
    endloop
  endfacet
  facet normal 0.876307 -0.481753 0
    outer loop
      vertex 27.9607 1.10437 1.1
      vertex 28.3229 1.76336 -1.1
      vertex 28.3229 1.76336 1.1
    endloop
  endfacet
  facet normal 0.876307 -0.481753 0
    outer loop
      vertex 28.3229 1.76336 -1.1
      vertex 27.9607 1.10437 1.1
      vertex 27.9607 1.10437 -1.1
    endloop
  endfacet
  facet normal 0.968583 -0.248691 0
    outer loop
      vertex 27.7737 0.375999 1.1
      vertex 27.9607 1.10437 -1.1
      vertex 27.9607 1.10437 1.1
    endloop
  endfacet
  facet normal 0.968583 -0.248691 0
    outer loop
      vertex 27.9607 1.10437 -1.1
      vertex 27.7737 0.375999 1.1
      vertex 27.7737 0.375999 -1.1
    endloop
  endfacet
  facet normal 0.309018 -0.951056 0
    outer loop
      vertex 29.4727 2.71448 -1.1
      vertex 30.1879 2.94686 1.1
      vertex 29.4727 2.71448 1.1
    endloop
  endfacet
  facet normal 0.309018 -0.951056 0
    outer loop
      vertex 30.1879 2.94686 1.1
      vertex 29.4727 2.71448 -1.1
      vertex 30.1879 2.94686 -1.1
    endloop
  endfacet
  facet normal -0.992115 0.125332 0
    outer loop
      vertex 33.6558 -0.746069 -1.1
      vertex 33.75 0 1.1
      vertex 33.75 0 -1.1
    endloop
  endfacet
  facet normal -0.992115 0.125332 0
    outer loop
      vertex 33.75 0 1.1
      vertex 33.6558 -0.746069 -1.1
      vertex 33.6558 -0.746069 1.1
    endloop
  endfacet
  facet normal -0.809015 0.587788 0
    outer loop
      vertex 32.9369 -2.05364 -1.1
      vertex 33.3789 -1.44526 1.1
      vertex 33.3789 -1.44526 -1.1
    endloop
  endfacet
  facet normal -0.809015 0.587788 0
    outer loop
      vertex 33.3789 -1.44526 1.1
      vertex 32.9369 -2.05364 -1.1
      vertex 32.9369 -2.05364 1.1
    endloop
  endfacet
  facet normal -0.929777 0.368123 0
    outer loop
      vertex 33.3789 -1.44526 -1.1
      vertex 33.6558 -0.746069 1.1
      vertex 33.6558 -0.746069 -1.1
    endloop
  endfacet
  facet normal -0.929777 0.368123 0
    outer loop
      vertex 33.6558 -0.746069 1.1
      vertex 33.3789 -1.44526 -1.1
      vertex 33.3789 -1.44526 1.1
    endloop
  endfacet
  facet normal 0.535825 0.844329 -0
    outer loop
      vertex 29.4727 -2.71448 -1.1
      vertex 28.8377 -2.31154 1.1
      vertex 29.4727 -2.71448 1.1
    endloop
  endfacet
  facet normal 0.535825 0.844329 0
    outer loop
      vertex 28.8377 -2.31154 1.1
      vertex 29.4727 -2.71448 -1.1
      vertex 28.8377 -2.31154 -1.1
    endloop
  endfacet
  facet normal 0.728969 0.684546 0
    outer loop
      vertex 28.8377 -2.31154 1.1
      vertex 28.3229 -1.76336 -1.1
      vertex 28.3229 -1.76336 1.1
    endloop
  endfacet
  facet normal 0.728969 0.684546 0
    outer loop
      vertex 28.3229 -1.76336 -1.1
      vertex 28.8377 -2.31154 1.1
      vertex 28.8377 -2.31154 -1.1
    endloop
  endfacet
  facet normal 0.0627904 0.998027 -0
    outer loop
      vertex 30.9384 -2.99408 -1.1
      vertex 30.1879 -2.94686 1.1
      vertex 30.9384 -2.99408 1.1
    endloop
  endfacet
  facet normal 0.0627904 0.998027 0
    outer loop
      vertex 30.1879 -2.94686 1.1
      vertex 30.9384 -2.99408 -1.1
      vertex 30.1879 -2.94686 -1.1
    endloop
  endfacet
  facet normal 0.876307 0.481753 0
    outer loop
      vertex 28.3229 -1.76336 1.1
      vertex 27.9607 -1.10437 -1.1
      vertex 27.9607 -1.10437 1.1
    endloop
  endfacet
  facet normal 0.876307 0.481753 0
    outer loop
      vertex 27.9607 -1.10437 -1.1
      vertex 28.3229 -1.76336 1.1
      vertex 28.3229 -1.76336 -1.1
    endloop
  endfacet
  facet normal 0.968583 0.248691 0
    outer loop
      vertex 27.9607 -1.10437 1.1
      vertex 27.7737 -0.375999 -1.1
      vertex 27.7737 -0.375999 1.1
    endloop
  endfacet
  facet normal 0.968583 0.248691 0
    outer loop
      vertex 27.7737 -0.375999 -1.1
      vertex 27.9607 -1.10437 1.1
      vertex 27.9607 -1.10437 -1.1
    endloop
  endfacet
  facet normal -0.637424 0.770513 0
    outer loop
      vertex 32.9369 -2.05364 -1.1
      vertex 32.3575 -2.53298 1.1
      vertex 32.9369 -2.05364 1.1
    endloop
  endfacet
  facet normal -0.637424 0.770513 0
    outer loop
      vertex 32.3575 -2.53298 1.1
      vertex 32.9369 -2.05364 -1.1
      vertex 32.3575 -2.53298 -1.1
    endloop
  endfacet
  facet normal -0.425781 0.904826 0
    outer loop
      vertex 32.3575 -2.53298 -1.1
      vertex 31.6771 -2.85317 1.1
      vertex 32.3575 -2.53298 1.1
    endloop
  endfacet
  facet normal -0.425781 0.904826 0
    outer loop
      vertex 31.6771 -2.85317 1.1
      vertex 32.3575 -2.53298 -1.1
      vertex 31.6771 -2.85317 -1.1
    endloop
  endfacet
  facet normal 0.309018 0.951056 -0
    outer loop
      vertex 30.1879 -2.94686 -1.1
      vertex 29.4727 -2.71448 1.1
      vertex 30.1879 -2.94686 1.1
    endloop
  endfacet
  facet normal 0.309018 0.951056 0
    outer loop
      vertex 29.4727 -2.71448 1.1
      vertex 30.1879 -2.94686 -1.1
      vertex 29.4727 -2.71448 -1.1
    endloop
  endfacet
endsolid OpenSCAD_Model
